<svg width="24" height="24" viewBox="0 0 24 24" fill="none" xmlns="http://www.w3.org/2000/svg">
<path d="M5.5 2.75C5.5 2.55109 5.42098 2.36032 5.28033 2.21967C5.13968 2.07902 4.94891 2 4.75 2C4.55109 2 4.36032 2.07902 4.21967 2.21967C4.07902 2.36032 4 2.55109 4 2.75C4 4.02 4.928 4.667 5.506 5.07L5.57 5.114C6.25 5.59 6.5 5.819 6.5 6.25C6.5 6.44891 6.57902 6.63968 6.71967 6.78033C6.86032 6.92098 7.05109 7 7.25 7C7.44891 7 7.63968 6.92098 7.78033 6.78033C7.92098 6.63968 8 6.44891 8 6.25C8 4.98 7.072 4.333 6.494 3.93L6.43 3.886C5.75 3.41 5.5 3.18 5.5 2.75ZM3 9.821C2.99987 9.58183 3.04688 9.34497 3.13835 9.12398C3.22982 8.90298 3.36394 8.70219 3.53307 8.53307C3.70219 8.36394 3.90299 8.22982 4.12398 8.13835C4.34497 8.04688 4.58183 7.99987 4.821 8H17.18C17.4191 8 17.6558 8.04711 17.8767 8.13863C18.0976 8.23016 18.2983 8.36431 18.4673 8.53342C18.6363 8.70253 18.7703 8.90328 18.8617 9.12421C18.9532 9.34514 19.0001 9.58191 19 9.821V10.5H19.75C20.612 10.5 21.4386 10.8424 22.0481 11.4519C22.6576 12.0614 23 12.888 23 13.75C23 14.612 22.6576 15.4386 22.0481 16.0481C21.4386 16.6576 20.612 17 19.75 17H18.419C17.7214 18.7197 16.4477 20.1435 14.8161 21.0277C13.1845 21.912 11.2962 22.2017 9.47455 21.8472C7.65288 21.4928 6.01101 20.5163 4.82992 19.0848C3.64884 17.6533 3.00196 15.8558 3 14V9.821ZM17.5 9.821C17.5001 9.77881 17.4919 9.73701 17.4758 9.698C17.4597 9.659 17.4361 9.62356 17.4063 9.59372C17.3764 9.56389 17.341 9.54025 17.302 9.52417C17.263 9.50808 17.2212 9.49987 17.179 9.5H4.82C4.77781 9.49987 4.73601 9.50808 4.697 9.52417C4.658 9.54025 4.62256 9.56389 4.59272 9.59372C4.56289 9.62356 4.53925 9.659 4.52317 9.698C4.50708 9.73701 4.49887 9.77881 4.499 9.821V14C4.499 15.7239 5.18382 17.3772 6.40281 18.5962C7.62179 19.8152 9.27509 20.5 10.999 20.5C12.7229 20.5 14.3762 19.8152 15.5952 18.5962C16.8142 17.3772 17.499 15.7239 17.499 14L17.5 9.821ZM19.75 12H19V14C19.0006 14.5033 18.9537 15.0055 18.86 15.5H19.75C19.9798 15.5 20.2074 15.4547 20.4197 15.3668C20.632 15.2788 20.8249 15.1499 20.9874 14.9874C21.1499 14.8249 21.2788 14.632 21.3668 14.4197C21.4547 14.2074 21.5 13.9798 21.5 13.75C21.5 13.5202 21.4547 13.2926 21.3668 13.0803C21.2788 12.868 21.1499 12.6751 20.9874 12.5126C20.8249 12.3501 20.632 12.2212 20.4197 12.1332C20.2074 12.0453 19.9798 12 19.75 12ZM8.75 2C8.94891 2 9.13968 2.07902 9.28033 2.21967C9.42098 2.36032 9.5 2.55109 9.5 2.75C9.5 3.181 9.75 3.41 10.43 3.886L10.494 3.93C11.072 4.333 12 4.98 12 6.25C12 6.44891 11.921 6.63968 11.7803 6.78033C11.6397 6.92098 11.4489 7 11.25 7C11.0511 7 10.8603 6.92098 10.7197 6.78033C10.579 6.63968 10.5 6.44891 10.5 6.25C10.5 5.819 10.25 5.59 9.57 5.114L9.506 5.07C8.928 4.667 8 4.02 8 2.75C8 2.55109 8.07902 2.36032 8.21967 2.21967C8.36032 2.07902 8.55109 2 8.75 2ZM13.5 2.75C13.5 2.55109 13.421 2.36032 13.2803 2.21967C13.1397 2.07902 12.9489 2 12.75 2C12.5511 2 12.3603 2.07902 12.2197 2.21967C12.079 2.36032 12 2.55109 12 2.75C12 4.02 12.928 4.667 13.506 5.07L13.57 5.114C14.25 5.59 14.5 5.819 14.5 6.25C14.5 6.44891 14.579 6.63968 14.7197 6.78033C14.8603 6.92098 15.0511 7 15.25 7C15.4489 7 15.6397 6.92098 15.7803 6.78033C15.921 6.63968 16 6.44891 16 6.25C16 4.98 15.072 4.333 14.494 3.93L14.43 3.886C13.75 3.41 13.5 3.181 13.5 2.75Z" fill="#CB3600"/>
</svg>
