<svg width="30" height="30" viewBox="0 0 30 30" fill="none" xmlns="http://www.w3.org/2000/svg">
<path fill-rule="evenodd" clip-rule="evenodd" d="M9.10714 11.7868C9.10714 9.37147 10.0666 7.05503 11.7746 5.34711C13.4825 3.63919 15.7989 2.67969 18.2143 2.67969C20.6297 2.67969 22.9461 3.63919 24.654 5.34711C26.3619 7.05503 27.3214 9.37147 27.3214 11.7868C27.3214 14.2022 26.3619 16.5186 24.654 18.2266C22.9461 19.9345 20.6297 20.894 18.2143 20.894C15.7989 20.894 13.4825 19.9345 11.7746 18.2266C10.0666 16.5186 9.10714 14.2022 9.10714 11.7868ZM18.7414 23.5618C17.9826 25.7056 16.4909 27.5124 14.5295 28.6634C12.5682 29.8143 10.2633 30.2353 8.02167 29.8522C5.78007 29.469 3.74588 28.3063 2.27818 26.5692C0.810472 24.8321 0.00360649 22.6324 6.05873e-07 20.3583C-0.000706976 18.3616 0.618375 16.414 1.77179 14.7843C2.92521 13.1545 4.55608 11.923 6.43929 11.2597C6.54133 8.97577 7.30543 6.77083 8.6385 4.91352C9.97158 3.0562 11.8161 1.6267 13.9472 0.799174C16.0784 -0.0283498 18.4043 -0.218168 20.6414 0.252847C22.8786 0.723861 24.9304 1.83537 26.547 3.45196C28.1636 5.06854 29.2751 7.12041 29.7461 9.35756C30.2171 11.5947 30.0273 13.9206 29.1998 16.0517C28.3723 18.1829 26.9428 20.0274 25.0855 21.3605C23.2281 22.6935 21.0232 23.4576 18.7393 23.5597M19.5621 5.49969C19.5621 5.14449 19.421 4.80383 19.1699 4.55267C18.9187 4.3015 18.5781 4.1604 18.2229 4.1604C17.8677 4.1604 17.527 4.3015 17.2758 4.55267C17.0247 4.80383 16.8836 5.14449 16.8836 5.49969V6.09969C16.1106 6.18955 15.3945 6.55054 14.8626 7.11852C14.3307 7.68649 14.0174 8.42466 13.9783 9.20184C13.9392 9.97902 14.177 10.7449 14.6493 11.3633C15.1215 11.9818 15.7978 12.4128 16.5579 12.5797L19.1314 13.1433C19.3334 13.1895 19.5114 13.3083 19.6317 13.4771C19.752 13.6459 19.8061 13.8529 19.7839 14.0589C19.7618 14.265 19.6647 14.4557 19.5113 14.595C19.3579 14.7343 19.1587 14.8125 18.9514 14.8147H17.4943C17.3195 14.8146 17.149 14.7603 17.0063 14.6594C16.8635 14.5585 16.7556 14.4159 16.6971 14.2511C16.643 14.0798 16.555 13.9211 16.4383 13.7845C16.3216 13.6479 16.1786 13.5362 16.0179 13.456C15.8571 13.3758 15.6818 13.3288 15.5025 13.3177C15.3232 13.3066 15.1435 13.3318 14.9741 13.3916C14.8047 13.4514 14.649 13.5447 14.5164 13.6659C14.3838 13.7872 14.2769 13.9338 14.2022 14.0972C14.1274 14.2605 14.0863 14.4373 14.0813 14.6169C14.0762 14.7965 14.1074 14.9752 14.1729 15.1425C14.5886 16.3254 15.6193 17.219 16.8836 17.4397V18.0697C16.8836 18.4249 17.0247 18.7655 17.2758 19.0167C17.527 19.2679 17.8677 19.409 18.2229 19.409C18.5781 19.409 18.9187 19.2679 19.1699 19.0167C19.421 18.7655 19.5621 18.4249 19.5621 18.0697V17.4397C20.3661 17.2979 21.096 16.8815 21.6271 16.2616C22.1582 15.6416 22.4577 14.8565 22.4744 14.0403C22.4911 13.2241 22.224 12.4274 21.7186 11.7862C21.2133 11.1451 20.5011 10.6992 19.7036 10.5247L17.1321 9.9654C16.9839 9.9345 16.8523 9.84959 16.7631 9.72717C16.6739 9.60475 16.6334 9.45355 16.6494 9.30293C16.6655 9.1523 16.7369 9.01301 16.8499 8.9121C16.9628 8.81118 17.1092 8.75584 17.2607 8.75683H18.9536C19.1287 8.75537 19.2999 8.80899 19.443 8.91012C19.586 9.01125 19.6937 9.15477 19.7507 9.3204C19.8773 9.64392 20.1247 9.90559 20.4406 10.0501C20.7565 10.1947 21.1163 10.2108 21.4439 10.0952C21.7714 9.97947 22.0413 9.74101 22.1963 9.43013C22.3514 9.11924 22.3796 8.76026 22.275 8.42897C22.0664 7.84052 21.7057 7.31779 21.2296 6.91393C20.7535 6.51007 20.1789 6.23949 19.5643 6.12969L19.5621 5.49969Z" fill="#CB3600"/>
</svg>
