<svg width="20" height="20" viewBox="0 0 20 20" fill="none" xmlns="http://www.w3.org/2000/svg">
<path fill-rule="evenodd" clip-rule="evenodd" d="M8.033 0.734848C8.57874 0.260945 9.27722 0 10 0C10.7228 0 11.4213 0.260945 11.967 0.734848L18.967 6.81085C19.2914 7.09255 19.5515 7.44066 19.7297 7.8316C19.908 8.22254 20.0001 8.6472 20 9.07685V16.8518C20 17.6475 19.6839 18.4106 19.1213 18.9732C18.5587 19.5358 17.7956 19.8518 17 19.8518H13.5C13.1022 19.8518 12.7206 19.6938 12.4393 19.4125C12.158 19.1312 12 18.7497 12 18.3518V11.5388H8V18.3518C8 18.7497 7.84196 19.1312 7.56066 19.4125C7.27936 19.6938 6.89782 19.8518 6.5 19.8518H3C2.20435 19.8518 1.44129 19.5358 0.87868 18.9732C0.316071 18.4106 1.19998e-07 17.6475 1.19998e-07 16.8518V9.07685C-0.000121394 8.6472 0.0920451 8.22254 0.270264 7.8316C0.448482 7.44066 0.708594 7.09255 1.033 6.81085L8.033 0.734848ZM10.656 2.24485C10.474 2.0867 10.2411 1.99961 10 1.99961C9.75892 1.99961 9.52596 2.0867 9.344 2.24485L2.344 8.32185C2.23597 8.41574 2.14935 8.53174 2.09001 8.66199C2.03066 8.79224 1.99997 8.93371 2 9.07685V16.8518C2 17.1171 2.10536 17.3714 2.29289 17.559C2.48043 17.7465 2.73478 17.8518 3 17.8518H6V11.5388C6 11.0084 6.21071 10.4997 6.58579 10.1246C6.96086 9.74956 7.46957 9.53885 8 9.53885H12C12.5304 9.53885 13.0391 9.74956 13.4142 10.1246C13.7893 10.4997 14 11.0084 14 11.5388V17.8518H17C17.2652 17.8518 17.5196 17.7465 17.7071 17.559C17.8946 17.3714 18 17.1171 18 16.8518V9.07685C17.9999 8.93364 17.9691 8.79212 17.9095 8.66186C17.85 8.5316 17.7632 8.41565 17.655 8.32185L10.656 2.24485Z" fill="#CB3600"/>
</svg>
