<svg width="56" height="54" viewBox="0 0 56 54" fill="none" xmlns="http://www.w3.org/2000/svg">
<g clip-path="url(#clip0_2001_2568)">
<path d="M23.4876 0C24.0261 0 24.5647 0 25.1196 0C25.1196 0.021039 25.1196 0.0420779 25.1196 0.0637544C25.1551 0.0630148 25.1906 0.0622751 25.2272 0.0615131C25.9789 0.0512908 26.7424 0.0905817 27.4876 0.191263C27.4876 0.212302 27.4876 0.233341 27.4876 0.255018C27.5244 0.256805 27.5244 0.256805 27.5619 0.258629C28.2011 0.296342 28.8574 0.390239 29.4716 0.57379C29.4716 0.594829 29.4716 0.615868 29.4716 0.637544C29.5198 0.635325 29.5198 0.635325 29.5689 0.633062C29.8728 0.623548 30.1129 0.655513 30.3996 0.765053C30.3996 0.786092 30.3996 0.807131 30.3996 0.828808C30.4405 0.832752 30.4814 0.836697 30.5236 0.840762C30.6871 0.858636 30.8468 0.890002 31.0076 0.924439C31.0076 0.945478 31.0076 0.966517 31.0076 0.988194C31.1132 0.998713 31.2188 1.00923 31.3276 1.02007C31.3276 1.04111 31.3276 1.06215 31.3276 1.08383C31.3461 1.08502 31.3647 1.08621 31.3838 1.08744C31.4088 1.08953 31.4338 1.09163 31.4596 1.09379C31.4841 1.09564 31.5086 1.09749 31.5338 1.09939C31.6156 1.1157 31.6156 1.1157 31.7056 1.16153C31.8212 1.218 31.9339 1.24293 32.0596 1.26513C32.0816 1.26926 32.1036 1.27339 32.1263 1.27764C32.18 1.28767 32.2338 1.29736 32.2876 1.30697C32.2876 1.33852 32.2876 1.37008 32.2876 1.4026C32.3371 1.39964 32.3371 1.39964 32.3876 1.39662C32.5212 1.40306 32.5877 1.43549 32.7036 1.49823C32.7911 1.52051 32.7911 1.52051 32.8636 1.53011C32.8636 1.55115 32.8636 1.57218 32.8636 1.59386C32.9164 1.59386 32.9692 1.59386 33.0236 1.59386C33.0236 1.6149 33.0236 1.63594 33.0236 1.65762C33.1186 1.66813 33.2136 1.67865 33.3116 1.68949C33.3116 1.72105 33.3116 1.75261 33.3116 1.78512C33.3644 1.78512 33.4172 1.78512 33.4716 1.78512C33.4716 1.80616 33.4716 1.8272 33.4716 1.84888C33.5138 1.84888 33.556 1.84888 33.5996 1.84888C33.5996 1.86992 33.5996 1.89096 33.5996 1.91263C33.6352 1.91526 33.6708 1.91789 33.7076 1.9206C33.8718 1.94109 34.0311 1.99069 34.1756 2.07202C34.1861 2.10358 34.1967 2.13514 34.2076 2.16765C34.2365 2.16999 34.2365 2.16999 34.2661 2.17238C34.2916 2.17477 34.3172 2.17715 34.3436 2.1796C34.3688 2.18182 34.3941 2.18404 34.4201 2.18633C34.4983 2.20001 34.5547 2.22458 34.6236 2.26328C34.6236 2.29484 34.6236 2.3264 34.6236 2.35891C34.6451 2.35661 34.6667 2.35431 34.6889 2.35194C34.8145 2.36119 34.9084 2.41267 35.0176 2.47048C35.0628 2.49374 35.108 2.51698 35.1532 2.54022C35.1764 2.5523 35.1997 2.56438 35.2236 2.57682C35.3429 2.63837 35.4633 2.69778 35.5836 2.75738C35.6269 2.77895 35.6702 2.80054 35.7136 2.82213C35.7446 2.83758 35.7756 2.85303 35.8076 2.86895C35.8076 2.88999 35.8076 2.91103 35.8076 2.9327C35.8359 2.93599 35.8643 2.93928 35.8936 2.94267C36.0024 2.96517 36.0697 2.99624 36.1596 3.06021C36.1701 3.08125 36.1807 3.10229 36.1916 3.12397C36.2628 3.15096 36.335 3.17078 36.4083 3.19158C36.4858 3.22204 36.5196 3.25518 36.5756 3.31523C36.7111 3.39674 36.8492 3.4692 36.9916 3.53837C36.9916 3.55941 36.9916 3.58045 36.9916 3.60213C37.0173 3.60607 37.043 3.61001 37.0696 3.61408C37.0966 3.62065 37.1237 3.62723 37.1516 3.634C37.1621 3.65504 37.1727 3.67608 37.1836 3.69776C37.237 3.72044 37.237 3.72044 37.2916 3.74358C37.3975 3.78905 37.4287 3.81135 37.5036 3.88902C37.5768 3.93448 37.6518 3.97523 37.7276 4.01653C37.7276 4.03757 37.7276 4.05861 37.7276 4.08028C37.7526 4.08291 37.7777 4.08554 37.8036 4.08825C37.8313 4.09614 37.859 4.10403 37.8876 4.11216C37.9089 4.15466 37.9302 4.19717 37.9516 4.23967C38.0333 4.26554 38.0333 4.26554 38.1116 4.27155C38.1116 4.29259 38.1116 4.31362 38.1116 4.3353C38.1426 4.34451 38.1736 4.35371 38.2056 4.36319C38.3036 4.39906 38.3036 4.39906 38.3356 4.46281C38.4003 4.4836 38.4003 4.4836 38.4636 4.49469C38.4636 4.51573 38.4636 4.53677 38.4636 4.55844C38.4952 4.56896 38.5269 4.57948 38.5596 4.59032C38.5902 4.62188 38.5902 4.62188 38.6216 4.65407C38.6894 4.71958 38.724 4.73667 38.8156 4.74971C38.8156 4.77074 38.8156 4.79178 38.8156 4.81346C38.8472 4.82398 38.8789 4.8345 38.9116 4.84534C38.9116 4.86638 38.9116 4.88741 38.9116 4.90909C38.9327 4.90909 38.9538 4.90909 38.9756 4.90909C38.9756 4.93013 38.9756 4.95117 38.9756 4.97285C39.0864 5.0044 39.0864 5.0044 39.1996 5.0366C39.2101 5.07868 39.2207 5.12076 39.2316 5.16411C39.2527 5.16411 39.2738 5.16411 39.2956 5.16411C39.2956 5.18515 39.2956 5.20619 39.2956 5.22786C39.3484 5.23838 39.4012 5.2489 39.4556 5.25974C39.4661 5.2913 39.4767 5.32286 39.4876 5.35537C39.5677 5.39422 39.5677 5.39422 39.6476 5.41913C39.6476 5.44017 39.6476 5.4612 39.6476 5.48288C39.6726 5.49143 39.6977 5.49998 39.7236 5.50878C39.8076 5.54664 39.8076 5.54664 39.8716 5.64227C39.8993 5.6587 39.927 5.67514 39.9556 5.69208C39.9932 5.71476 39.9932 5.71476 40.0316 5.7379C40.0316 5.75894 40.0316 5.77998 40.0316 5.80165C40.0738 5.81217 40.116 5.82269 40.1596 5.83353C40.1596 5.85457 40.1596 5.87561 40.1596 5.89728C40.1807 5.89728 40.2018 5.89728 40.2236 5.89728C40.2236 5.91832 40.2236 5.93936 40.2236 5.96104C40.2447 5.96104 40.2658 5.96104 40.2876 5.96104C40.2876 5.98208 40.2876 6.00312 40.2876 6.02479C40.3509 6.04583 40.4143 6.06687 40.4796 6.08855C40.4796 6.12011 40.4796 6.15167 40.4796 6.18418C40.5007 6.18418 40.5218 6.18418 40.5436 6.18418C40.5956 6.22801 40.5956 6.22801 40.6396 6.27981C40.6396 6.30085 40.6396 6.32189 40.6396 6.34357C40.6712 6.34357 40.7029 6.34357 40.7356 6.34357C40.7356 6.3646 40.7356 6.38564 40.7356 6.40732C40.7567 6.40732 40.7778 6.40732 40.7996 6.40732C40.7996 6.43888 40.7996 6.47044 40.7996 6.50295C40.8312 6.50295 40.8629 6.50295 40.8956 6.50295C40.8956 6.52399 40.8956 6.54503 40.8956 6.56671C40.9378 6.57723 40.98 6.58775 41.0236 6.59858C41.0341 6.65118 41.0447 6.70378 41.0556 6.75797C41.0978 6.76849 41.14 6.77901 41.1836 6.78985C41.1836 6.81089 41.1836 6.83192 41.1836 6.8536C41.2258 6.86412 41.268 6.87464 41.3116 6.88548C41.3116 6.91704 41.3116 6.9486 41.3116 6.98111C41.3314 6.99097 41.3512 7.00083 41.3716 7.011C41.4156 7.03291 41.4596 7.05483 41.5036 7.07674C41.5036 7.09778 41.5036 7.11882 41.5036 7.1405C41.5247 7.1405 41.5458 7.1405 41.5676 7.1405C41.5781 7.16154 41.5887 7.18257 41.5996 7.20425C41.6312 7.21477 41.6629 7.22529 41.6956 7.23613C41.7392 7.29923 41.7818 7.36306 41.8236 7.42739C41.8862 7.49524 41.933 7.54567 42.0156 7.58678C42.0156 7.60782 42.0156 7.62886 42.0156 7.65053C42.0367 7.65053 42.0578 7.65053 42.0796 7.65053C42.0815 7.67552 42.0835 7.7005 42.0856 7.72624C42.0984 7.76766 42.0984 7.76766 42.1116 7.80992C42.1645 7.83212 42.2179 7.8533 42.2716 7.87367C42.3676 8.00558 42.3676 8.00558 42.3676 8.09681C42.3992 8.09681 42.4309 8.09681 42.4636 8.09681C42.4636 8.11785 42.4636 8.13889 42.4636 8.16057C42.5058 8.18161 42.548 8.20265 42.5916 8.22432C42.5916 8.25588 42.5916 8.28744 42.5916 8.31995C42.6232 8.33047 42.6549 8.34099 42.6876 8.35183C42.6895 8.37681 42.6915 8.4018 42.6936 8.42754C42.7021 8.45515 42.7107 8.48277 42.7196 8.51122C42.7988 8.55504 42.7988 8.55504 42.8796 8.57497C42.8796 8.60653 42.8796 8.63809 42.8796 8.6706C42.9007 8.6706 42.9218 8.6706 42.9436 8.6706C42.9436 8.69164 42.9436 8.71268 42.9436 8.73436C42.9647 8.73436 42.9858 8.73436 43.0076 8.73436C43.0076 8.7554 43.0076 8.77643 43.0076 8.79811C43.0392 8.80863 43.0709 8.81915 43.1036 8.82999C43.1249 8.87249 43.1462 8.915 43.1676 8.9575C43.1946 8.9838 43.2217 9.01009 43.2496 9.03719C43.3232 9.11243 43.3482 9.14289 43.3596 9.24439C43.3807 9.24439 43.4018 9.24439 43.4236 9.24439C43.4756 9.28623 43.4756 9.28623 43.5196 9.34002C43.5196 9.37158 43.5196 9.40314 43.5196 9.43566C43.5407 9.43566 43.5618 9.43566 43.5836 9.43566C43.6047 9.49877 43.6258 9.56189 43.6476 9.62692C43.6687 9.62692 43.6898 9.62692 43.7116 9.62692C43.7221 9.669 43.7327 9.71107 43.7436 9.75443C43.7752 9.75443 43.8069 9.75443 43.8396 9.75443C43.8607 9.81754 43.8818 9.88066 43.9036 9.94569C43.9247 9.94569 43.9458 9.94569 43.9676 9.94569C43.9781 9.97725 43.9887 10.0088 43.9996 10.0413C44.0312 10.0624 44.0629 10.0834 44.0956 10.1051C44.1176 10.2047 44.1176 10.2047 44.1276 10.2963C44.1592 10.2963 44.1909 10.2963 44.2236 10.2963C44.3196 10.4309 44.3196 10.4309 44.3196 10.5195C44.3407 10.5195 44.3618 10.5195 44.3836 10.5195C44.3941 10.5721 44.4047 10.6247 44.4156 10.6789C44.4472 10.6894 44.4789 10.6999 44.5116 10.7107C44.5116 10.7423 44.5116 10.7739 44.5116 10.8064C44.5327 10.8064 44.5538 10.8064 44.5756 10.8064C44.5837 10.8237 44.5918 10.841 44.6002 10.8588C44.6167 10.893 44.6167 10.893 44.6336 10.9279C44.6443 10.9505 44.6551 10.973 44.6662 10.9963C44.704 11.0622 44.7446 11.105 44.7996 11.157C44.8956 11.2987 44.8956 11.2987 44.8956 11.412C44.9167 11.412 44.9378 11.412 44.9596 11.412C44.9728 11.4397 44.986 11.4673 44.9996 11.4957C45.0533 11.6048 45.0533 11.6048 45.1256 11.7029C45.1836 11.7946 45.1836 11.7946 45.1836 11.9221C45.2047 11.9221 45.2258 11.9221 45.2476 11.9221C45.2581 11.9642 45.2687 12.0062 45.2796 12.0496C45.3007 12.0496 45.3218 12.0496 45.3436 12.0496C45.4396 12.2289 45.4396 12.2289 45.4396 12.3365C45.4607 12.3365 45.4818 12.3365 45.5036 12.3365C45.5036 12.368 45.5036 12.3996 45.5036 12.4321C45.5247 12.4321 45.5458 12.4321 45.5676 12.4321C45.6327 12.551 45.6636 12.6128 45.6636 12.7509C45.6952 12.7614 45.7269 12.7719 45.7596 12.7828C45.8155 12.8941 45.8556 12.9762 45.8556 13.1015C45.8767 13.1015 45.8978 13.1015 45.9196 13.1015C45.9411 13.1419 45.9624 13.1825 45.9836 13.2231C45.9954 13.2456 46.0073 13.2682 46.0196 13.2914C46.0476 13.3566 46.0476 13.3566 46.0476 13.4522C46.0792 13.4627 46.1109 13.4732 46.1436 13.4841C46.1739 13.5535 46.1739 13.5535 46.1976 13.6395C46.2056 13.6677 46.2136 13.6958 46.2219 13.7249C46.2396 13.8028 46.2396 13.8028 46.2396 13.8985C46.2712 13.909 46.3029 13.9195 46.3356 13.9303C46.3724 14.0147 46.4041 14.0965 46.4336 14.1834C46.4877 14.3578 46.4877 14.3578 46.5916 14.5041C46.6043 14.5675 46.6152 14.6313 46.6236 14.6954C46.6447 14.6954 46.6658 14.6954 46.6876 14.6954C46.7091 14.7564 46.7304 14.8175 46.7516 14.8787C46.7634 14.9127 46.7753 14.9467 46.7876 14.9818C46.8156 15.0779 46.8156 15.0779 46.8156 15.2054C46.8472 15.216 46.8789 15.2265 46.9116 15.2373C46.9419 15.3149 46.9419 15.3149 46.9656 15.4106C46.9736 15.4422 46.9816 15.4737 46.9899 15.5061C47.0076 15.588 47.0076 15.588 47.0076 15.6517C47.0287 15.6517 47.0498 15.6517 47.0716 15.6517C47.0774 15.6718 47.0832 15.6918 47.0892 15.7125C47.1289 15.8471 47.1697 15.9795 47.2216 16.1099C47.2636 16.2255 47.2636 16.2255 47.2636 16.353C47.2847 16.353 47.3058 16.353 47.3276 16.353C47.3364 16.3826 47.3453 16.4121 47.3544 16.4425C47.366 16.4807 47.3776 16.5189 47.3896 16.5582C47.4011 16.5963 47.4126 16.6344 47.4244 16.6737C47.4462 16.7629 47.4462 16.7629 47.4876 16.7993C47.4934 16.8443 47.4979 16.8895 47.5016 16.9348C47.5129 17.0496 47.5378 17.1392 47.5836 17.2456C47.5836 17.2877 47.5836 17.3297 47.5836 17.3731C47.6152 17.3836 47.6469 17.3941 47.6796 17.405C47.7528 17.6443 47.7621 17.8894 47.7756 18.1381C47.8072 18.1487 47.8389 18.1592 47.8716 18.17C47.8956 18.227 47.8956 18.227 47.9126 18.3016C47.919 18.3291 47.9254 18.3566 47.932 18.385C47.9385 18.4146 47.9449 18.4443 47.9516 18.4748C47.9584 18.5051 47.9653 18.5353 47.9723 18.5664C48.0539 18.9304 48.1335 19.2954 48.1596 19.6682C48.1807 19.6682 48.2018 19.6682 48.2236 19.6682C48.2263 19.6896 48.229 19.711 48.2319 19.733C48.2444 19.8303 48.257 19.9276 48.2696 20.0249C48.2739 20.0585 48.2782 20.0921 48.2826 20.1268C48.2868 20.1594 48.2911 20.1919 48.2954 20.2255C48.2993 20.2554 48.3031 20.2852 48.3071 20.316C48.3154 20.3726 48.3253 20.429 48.3369 20.485C48.357 20.5887 48.3545 20.6885 48.3536 20.7939C48.3533 20.8339 48.353 20.8739 48.3527 20.9151C48.3523 20.9454 48.3519 20.9758 48.3516 21.0071C48.3727 21.0071 48.3938 21.0071 48.4156 21.0071C48.4983 21.6349 48.553 22.2544 48.5436 22.8878C48.5647 22.8878 48.5858 22.8878 48.6076 22.8878C48.6379 23.4309 48.6393 23.9699 48.6256 24.5136C48.6238 24.5884 48.6222 24.6633 48.6205 24.7381C48.6164 24.9183 48.6121 25.0985 48.6076 25.2786C48.5864 25.2786 48.5653 25.2786 48.5436 25.2786C48.5439 25.3158 48.5443 25.3529 48.5447 25.3912C48.5498 26.1249 48.5023 26.8452 48.4156 27.5738C48.3944 27.5738 48.3733 27.5738 48.3516 27.5738C48.3523 27.6035 48.353 27.6332 48.3538 27.6638C48.3571 27.8984 48.3469 28.1168 48.3061 28.3486C48.2819 28.5022 48.2666 28.6563 48.2516 28.811C48.2488 28.8398 48.246 28.8686 48.2431 28.8983C48.2365 28.9668 48.23 29.0354 48.2236 29.1039C48.2024 29.1039 48.1813 29.1039 48.1596 29.1039C48.1579 29.1252 48.1562 29.1464 48.1545 29.1683C48.1366 29.3821 48.1088 29.592 48.0716 29.8032C48.0661 29.8344 48.0606 29.8656 48.055 29.8978C47.9985 30.2109 47.922 30.5181 47.8396 30.8253C47.8184 30.8253 47.7973 30.8253 47.7756 30.8253C47.7744 30.8596 47.7732 30.8939 47.7719 30.9292C47.7594 31.2246 47.727 31.4956 47.6476 31.7816C47.6264 31.7816 47.6053 31.7816 47.5836 31.7816C47.5827 31.8006 47.5819 31.8196 47.5811 31.8392C47.5477 32.3475 47.386 32.8235 47.1936 33.2918C47.1392 33.4242 47.1027 33.5546 47.0716 33.6942C47.0399 33.6942 47.0082 33.6942 46.9756 33.6942C46.9775 33.7218 46.9795 33.7494 46.9816 33.7779C46.9748 33.8996 46.9397 33.9719 46.8796 34.0767C46.8584 34.0767 46.8373 34.0767 46.8156 34.0767C46.8123 34.1017 46.809 34.1267 46.8056 34.1525C46.7775 34.2999 46.7428 34.4469 46.6876 34.5868C46.6664 34.5973 46.6453 34.6078 46.6236 34.6187C46.5902 34.6834 46.5592 34.7494 46.5296 34.8159C46.4677 34.9537 46.4042 35.0898 46.3356 35.2243C46.3039 35.2243 46.2722 35.2243 46.2396 35.2243C46.2364 35.2443 46.2333 35.2643 46.2301 35.2848C46.2253 35.3109 46.2205 35.3369 46.2156 35.3638C46.2089 35.4026 46.2089 35.4026 46.2021 35.4422C46.1756 35.5112 46.1756 35.5112 46.1106 35.5471C46.0898 35.5563 46.069 35.5655 46.0476 35.575C46.0216 35.6564 46.0216 35.6564 46.0156 35.7344C45.9944 35.7344 45.9733 35.7344 45.9516 35.7344C45.941 35.7764 45.9304 35.8185 45.9196 35.8619C45.8984 35.8619 45.8773 35.8619 45.8556 35.8619C45.8463 35.8915 45.8371 35.921 45.8276 35.9515C45.7916 36.0531 45.7916 36.0531 45.7276 36.1488C45.7064 36.1488 45.6853 36.1488 45.6636 36.1488C45.6636 36.1803 45.6636 36.2119 45.6636 36.2444C45.6424 36.2444 45.6213 36.2444 45.5996 36.2444C45.5903 36.2687 45.5811 36.293 45.5716 36.3181C45.5356 36.4038 45.5356 36.4038 45.4716 36.4994C45.4504 36.4994 45.4293 36.4994 45.4076 36.4994C45.4043 36.5297 45.401 36.5599 45.3976 36.5911C45.3756 36.6907 45.3756 36.6907 45.2796 36.7544C45.2156 36.7568 45.2156 36.7568 45.1423 36.749C45.1151 36.7462 45.0878 36.7434 45.0597 36.7406C45.0306 36.7373 45.0015 36.7339 44.9716 36.7305C44.927 36.7258 44.927 36.7258 44.8815 36.7211C44.7901 36.7114 44.6988 36.7011 44.6076 36.6907C44.5656 36.6859 44.5656 36.6859 44.5228 36.6811C44.3696 36.6638 44.2165 36.6457 44.0636 36.6269C44.0636 36.6059 44.0636 36.5848 44.0636 36.5632C44.0424 36.5632 44.0213 36.5632 43.9996 36.5632C43.9996 36.5842 43.9996 36.6052 43.9996 36.6269C43.9784 36.6269 43.9573 36.6269 43.9356 36.6269C43.9356 36.6059 43.9356 36.5848 43.9356 36.5632C43.6284 36.5389 43.321 36.5176 43.0136 36.4974C42.9692 36.4945 42.9249 36.4916 42.8805 36.4886C42.7735 36.4816 42.6665 36.4746 42.5596 36.4675C42.5596 36.4465 42.5596 36.4255 42.5596 36.4038C42.5281 36.402 42.5281 36.402 42.4961 36.4002C42.2945 36.3857 42.1088 36.3505 41.9137 36.2986C41.7983 36.27 41.6857 36.2557 41.5676 36.2444C41.5676 36.2234 41.5676 36.2023 41.5676 36.1806C41.5444 36.1768 41.5212 36.1729 41.4973 36.1689C41.3344 36.1408 41.1788 36.1116 41.0236 36.0531C41.0236 36.0321 41.0236 36.0111 41.0236 35.9894C40.9945 35.9881 40.9655 35.9867 40.9356 35.9854C40.7785 35.9638 40.6491 35.8865 40.5102 35.8141C40.3956 35.7562 40.2808 35.7124 40.1596 35.6706C40.1596 35.6496 40.1596 35.6285 40.1596 35.6068C40.1399 35.6011 40.1202 35.5953 40.0999 35.5893C40.0741 35.5813 40.0482 35.5733 40.0216 35.565C39.9959 35.5572 39.9703 35.5495 39.9439 35.5415C39.8669 35.5093 39.8321 35.4755 39.7756 35.4156C39.737 35.391 39.6977 35.3677 39.6576 35.3459C39.6226 35.3268 39.5876 35.3077 39.5516 35.2881C39.5516 35.267 39.5516 35.246 39.5516 35.2243C39.5166 35.2204 39.4816 35.2164 39.4456 35.2124C39.3276 35.1924 39.3276 35.1924 39.2316 35.1287C39.221 35.0971 39.2104 35.0656 39.1996 35.0331C39.1367 34.999 39.0726 34.9672 39.0076 34.9374C38.9759 34.9164 38.9442 34.8954 38.9116 34.8737C38.9116 34.8526 38.9116 34.8316 38.9116 34.8099C38.8918 34.8001 38.872 34.7902 38.8516 34.78C38.8076 34.7581 38.7636 34.7362 38.7196 34.7143C38.7196 34.6932 38.7196 34.6722 38.7196 34.6505C38.7008 34.642 38.6821 34.6335 38.6628 34.6248C38.5904 34.5862 38.5366 34.5436 38.4756 34.4892C38.4182 34.4381 38.3725 34.398 38.3036 34.3636C38.293 34.3321 38.2824 34.3005 38.2716 34.268C38.2485 34.2496 38.2254 34.2312 38.2016 34.2122C38.1113 34.1403 38.0439 34.0662 37.9707 33.978C37.9367 33.9377 37.9016 33.8982 37.8654 33.8597C37.6703 33.6505 37.3756 33.2875 37.3756 32.9929C37.3544 32.9929 37.3333 32.9929 37.3116 32.9929C37.2904 32.8877 37.2693 32.7825 37.2476 32.6741C37.2264 32.6741 37.2053 32.6741 37.1836 32.6741C37.162 32.6338 37.1407 32.5932 37.1196 32.5526C37.1077 32.5301 37.0958 32.5075 37.0836 32.4843C37.0556 32.4191 37.0556 32.4191 37.0556 32.3235C37.0344 32.3235 37.0133 32.3235 36.9916 32.3235C36.9754 32.2618 36.9595 32.2 36.9436 32.1382C36.9347 32.1038 36.9257 32.0694 36.9166 32.034C36.8956 31.941 36.8956 31.941 36.8956 31.8453C36.8744 31.8453 36.8533 31.8453 36.8316 31.8453C36.7056 31.4903 36.6335 31.1434 36.5853 30.7703C36.5721 30.6721 36.5555 30.5744 36.5396 30.4766C36.4967 30.1805 36.4901 29.8807 36.4796 29.5821C36.4584 29.5821 36.4373 29.5821 36.4156 29.5821C36.4129 29.5329 36.4129 29.5329 36.4102 29.4828C36.4035 29.3594 36.3968 29.2361 36.39 29.1128C36.3871 29.0597 36.3842 29.0067 36.3813 28.9536C36.365 28.6526 36.3474 28.3522 36.3196 28.052C36.2984 28.052 36.2773 28.052 36.2556 28.052C36.1968 27.7752 36.1521 27.5062 36.1385 27.2233C36.1278 27.0091 36.1008 26.7981 36.0721 26.5856C36.0607 26.5007 36.0501 26.4156 36.0395 26.3306C36.0342 26.288 36.0288 26.2455 36.0234 26.203C36.0098 26.0972 35.9975 25.9916 35.9869 25.8854C35.96 25.6307 35.9099 25.4009 35.8318 25.1569C35.769 24.9547 35.7476 24.7572 35.7436 24.5455C35.7224 24.5455 35.7013 24.5455 35.6796 24.5455C35.6589 24.4326 35.6382 24.3197 35.6176 24.2068C35.6117 24.1749 35.6059 24.1431 35.5999 24.1103C35.572 23.958 35.5444 23.8057 35.5196 23.6529C35.4984 23.6529 35.4773 23.6529 35.4556 23.6529C35.4394 23.5706 35.4234 23.4882 35.4076 23.4058C35.403 23.3826 35.3984 23.3593 35.3937 23.3354C35.3727 23.2259 35.3596 23.1272 35.3596 23.0154C35.3384 23.0154 35.3173 23.0154 35.2956 23.0154C35.2066 22.814 35.1379 22.6179 35.0921 22.4026C35.0607 22.2673 35.0233 22.1335 34.9858 21.9998C34.9611 21.91 34.9436 21.8339 34.9436 21.7403C34.9224 21.7403 34.9013 21.7403 34.8796 21.7403C34.8634 21.6792 34.8474 21.6181 34.8316 21.557C34.8227 21.5229 34.8137 21.4889 34.8046 21.4539C34.7836 21.3577 34.7836 21.3577 34.7836 21.2302C34.7624 21.2302 34.7413 21.2302 34.7196 21.2302C34.7088 21.1984 34.6979 21.1665 34.6868 21.1337C34.6724 21.0922 34.658 21.0506 34.6436 21.0091C34.6329 20.9776 34.6329 20.9776 34.6221 20.9454C34.5874 20.8262 34.5874 20.8262 34.4956 20.7521C34.475 20.705 34.4567 20.657 34.4396 20.6086C34.3831 20.4611 34.3106 20.3404 34.2202 20.2114C34.1413 20.0964 34.0796 20 34.0796 19.8595C34.0584 19.8595 34.0373 19.8595 34.0156 19.8595C34.0123 19.8391 34.009 19.8187 34.0056 19.7977C33.9983 19.776 33.991 19.7544 33.9836 19.732C33.9519 19.7215 33.9202 19.711 33.8876 19.7001C33.8496 19.5866 33.8496 19.5866 33.8236 19.477C33.7919 19.477 33.7602 19.477 33.7276 19.477C33.6796 19.4198 33.6796 19.4198 33.6316 19.3435C33.6149 19.3173 33.5983 19.2911 33.5812 19.264C33.5661 19.2396 33.5511 19.2152 33.5356 19.1901C33.5069 19.1457 33.5069 19.1457 33.4776 19.1004C33.4414 19.034 33.4213 18.9772 33.4076 18.9032C33.3864 18.9032 33.3653 18.9032 33.3436 18.9032C33.3436 18.8822 33.3436 18.8611 33.3436 18.8394C33.3224 18.8394 33.3013 18.8394 33.2796 18.8394C33.2362 18.7852 33.1952 18.729 33.1556 18.6721C33.0756 18.5576 32.9953 18.4588 32.8956 18.3613C32.8444 18.2955 32.7959 18.2283 32.7473 18.1607C32.7065 18.1022 32.7065 18.1022 32.6396 18.0744C32.6396 18.0533 32.6396 18.0323 32.6396 18.0106C32.6184 18.0106 32.5973 18.0106 32.5756 18.0106C32.5756 17.9791 32.5756 17.9475 32.5756 17.915C32.5333 17.894 32.4911 17.8729 32.4476 17.8512C32.4476 17.8302 32.4476 17.8092 32.4476 17.7875C32.4053 17.777 32.3631 17.7664 32.3196 17.7556C32.309 17.703 32.2984 17.6504 32.2876 17.5962C32.2529 17.5933 32.2529 17.5933 32.2176 17.5902C32.0657 17.5466 31.9888 17.4367 31.9036 17.3093C31.8377 17.2863 31.8377 17.2863 31.7756 17.2775C31.7756 17.2564 31.7756 17.2354 31.7756 17.2137C31.7571 17.2058 31.7386 17.1979 31.7196 17.1898C31.6476 17.1499 31.6476 17.1499 31.5876 17.0862C31.5063 17.01 31.4341 16.9876 31.3276 16.9587C31.3276 16.9376 31.3276 16.9166 31.3276 16.8949C31.3064 16.8949 31.2853 16.8949 31.2636 16.8949C31.2424 16.8634 31.2213 16.8318 31.1996 16.7993C31.1357 16.7776 31.0717 16.7564 31.0076 16.7355C30.9576 16.6897 30.9576 16.6897 30.9116 16.6399C30.8589 16.6069 30.8054 16.5753 30.7516 16.5443C30.687 16.5039 30.6227 16.4633 30.5584 16.4226C30.4962 16.3853 30.433 16.3526 30.3676 16.3211C30.3676 16.3001 30.3676 16.2791 30.3676 16.2574C30.3451 16.2541 30.3227 16.2508 30.2996 16.2474C30.1941 16.2223 30.1097 16.1831 30.0156 16.1299C30.005 16.1088 29.9944 16.0878 29.9836 16.0661C29.9012 16.037 29.9012 16.037 29.8056 16.0143C29.7732 16.006 29.7408 15.9977 29.7074 15.9892C29.6699 15.9799 29.6699 15.9799 29.6316 15.9705C29.6316 15.9494 29.6316 15.9284 29.6316 15.9067C29.6032 15.8975 29.5748 15.8883 29.5456 15.8788C29.4554 15.8483 29.3679 15.8144 29.2796 15.7792C29.2508 15.7698 29.222 15.7603 29.1923 15.7506C29.0828 15.7139 28.9753 15.6734 28.8676 15.6318C28.8307 15.6176 28.7938 15.6034 28.7558 15.5887C28.728 15.5779 28.7002 15.5672 28.6716 15.5561C28.6716 15.535 28.6716 15.514 28.6716 15.4923C28.6458 15.4943 28.6201 15.4963 28.5936 15.4983C28.4483 15.4907 28.327 15.447 28.1916 15.3967C28.1916 15.3757 28.1916 15.3546 28.1916 15.3329C28.1588 15.3268 28.126 15.3206 28.0922 15.3143C28.0486 15.3059 28.0051 15.2975 27.9616 15.2891C27.9292 15.2831 27.9292 15.2831 27.8962 15.2769C27.7751 15.2534 27.6643 15.2237 27.5516 15.1736C27.5516 15.1525 27.5516 15.1315 27.5516 15.1098C27.5304 15.1098 27.5093 15.1098 27.4876 15.1098C27.477 15.1308 27.4664 15.1519 27.4556 15.1736C27.4556 15.1525 27.4556 15.1315 27.4556 15.1098C27.4252 15.107 27.3948 15.1043 27.3636 15.1015C27.0833 15.0735 26.8108 15.028 26.5356 14.9683C26.0375 14.861 25.5337 14.7768 25.0236 14.7592C24.9885 14.7578 24.9885 14.7578 24.9527 14.7565C24.564 14.744 24.1803 14.7663 23.7936 14.803C23.7723 14.805 23.7511 14.807 23.7292 14.8091C23.1066 14.8663 23.1066 14.8663 22.4976 15.0002C22.315 15.0523 22.1408 15.0907 21.9516 15.1098C21.9516 15.1308 21.9516 15.1519 21.9516 15.1736C21.8849 15.1942 21.8182 15.2148 21.7516 15.2353C21.7144 15.2468 21.6773 15.2582 21.6391 15.2701C21.5621 15.2931 21.4858 15.3146 21.4076 15.3329C21.4076 15.354 21.4076 15.375 21.4076 15.3967C21.3623 15.4129 21.317 15.4288 21.2716 15.4445C21.2463 15.4534 21.2211 15.4623 21.1951 15.4714C21.1196 15.4923 21.1196 15.4923 20.9916 15.4923C20.9916 15.5134 20.9916 15.5344 20.9916 15.5561C20.8076 15.6517 20.8076 15.6517 20.7356 15.6517C20.7356 15.6728 20.7356 15.6938 20.7356 15.7155C20.7139 15.7213 20.6923 15.7271 20.6701 15.733C20.6415 15.741 20.613 15.7491 20.5836 15.7573C20.5553 15.7651 20.5271 15.7728 20.4981 15.7808C20.4136 15.8118 20.3581 15.8522 20.2876 15.9067C20.2664 15.9067 20.2453 15.9067 20.2236 15.9067C20.213 15.9383 20.2024 15.9698 20.1916 16.0024C20.1176 16.0024 20.0437 16.0024 19.9676 16.0024C19.9676 16.0234 19.9676 16.0444 19.9676 16.0661C19.9253 16.0661 19.8831 16.0661 19.8396 16.0661C19.829 16.0977 19.8184 16.1292 19.8076 16.1617C19.7416 16.1837 19.7416 16.1837 19.6796 16.1936C19.6796 16.2147 19.6796 16.2357 19.6796 16.2574C19.6268 16.2574 19.574 16.2574 19.5196 16.2574C19.509 16.2889 19.4984 16.3205 19.4876 16.353C19.4024 16.4166 19.308 16.4805 19.1996 16.4805C19.1996 16.5016 19.1996 16.5226 19.1996 16.5443C19.1362 16.5653 19.0728 16.5864 19.0076 16.608C19.0076 16.6291 19.0076 16.6501 19.0076 16.6718C18.9864 16.6718 18.9653 16.6718 18.9436 16.6718C18.933 16.7033 18.9224 16.7349 18.9116 16.7674C18.8799 16.7773 18.8482 16.7871 18.8156 16.7973C18.7839 16.8085 18.7522 16.8197 18.7196 16.8312C18.7077 16.8733 18.697 16.9159 18.6876 16.9587C18.595 17.0072 18.5366 17.0224 18.4316 17.0224C18.4289 17.0413 18.4262 17.0602 18.4234 17.0797C18.3926 17.1705 18.3511 17.1982 18.2736 17.2535C18.2508 17.2701 18.2281 17.2867 18.2047 17.3039C18.1436 17.3412 18.1436 17.3412 18.0796 17.3412C18.069 17.3728 18.0584 17.4043 18.0476 17.4368C18.0159 17.4368 17.9842 17.4368 17.9516 17.4368C17.941 17.4684 17.9304 17.5 17.9196 17.5325C17.8668 17.543 17.814 17.5535 17.7596 17.5643C17.7596 17.5959 17.7596 17.6275 17.7596 17.66C17.5913 17.7875 17.5913 17.7875 17.5036 17.7875C17.4824 17.8296 17.4613 17.8716 17.4396 17.915C17.4184 17.915 17.3973 17.915 17.3756 17.915C17.3676 17.94 17.3597 17.965 17.3516 17.9907C17.3116 18.0744 17.3116 18.0744 17.2496 18.1043C17.152 18.1543 17.1332 18.2325 17.0876 18.3294C17.0356 18.3852 17.0356 18.3852 16.9916 18.425C16.981 18.4461 16.9704 18.4671 16.9596 18.4888C16.9384 18.4888 16.9173 18.4888 16.8956 18.4888C16.8956 18.5098 16.8956 18.5309 16.8956 18.5525C16.8744 18.5525 16.8533 18.5525 16.8316 18.5525C16.8283 18.5703 16.825 18.588 16.8216 18.6063C16.7948 18.696 16.7585 18.7636 16.7036 18.8394C16.6719 18.8394 16.6402 18.8394 16.6076 18.8394C16.6016 18.8759 16.6016 18.8759 16.5956 18.9132C16.5756 18.9988 16.5756 18.9988 16.5116 19.0945C16.4904 19.0945 16.4693 19.0945 16.4476 19.0945C16.4383 19.1181 16.4291 19.1418 16.4196 19.1662C16.3892 19.24 16.3564 19.3106 16.3196 19.3813C16.2984 19.3813 16.2773 19.3813 16.2556 19.3813C16.2556 19.4129 16.2556 19.4445 16.2556 19.477C16.2344 19.477 16.2133 19.477 16.1916 19.477C16.1889 19.4987 16.1863 19.5204 16.1836 19.5427C16.1524 19.6642 16.0969 19.7524 16.0316 19.8595C16.0104 19.8595 15.9893 19.8595 15.9676 19.8595C15.9646 19.8813 15.9617 19.9031 15.9587 19.9256C15.93 20.0412 15.8796 20.1321 15.8216 20.2361C15.811 20.2551 15.8005 20.2741 15.7896 20.2938C15.7638 20.3404 15.7377 20.3869 15.7116 20.4333C15.6799 20.4333 15.6482 20.4333 15.6156 20.4333C15.5944 20.5806 15.5733 20.7278 15.5516 20.8796C15.5304 20.8796 15.5093 20.8796 15.4876 20.8796C15.4817 20.9 15.4759 20.9204 15.4699 20.9415C15.4334 21.0667 15.3968 21.1866 15.3436 21.3059C15.2878 21.4403 15.2557 21.5742 15.2234 21.7157C15.2019 21.7952 15.1755 21.8599 15.1356 21.9315C15.1144 21.9315 15.0933 21.9315 15.0716 21.9315C15.0735 21.9622 15.0754 21.9929 15.0774 22.0245C15.0774 22.1772 15.0285 22.3091 14.9776 22.4515C14.9687 22.4773 14.9598 22.5032 14.9506 22.5298C14.8865 22.7146 14.8865 22.7146 14.8476 22.7922C14.8411 22.8452 14.8359 22.8984 14.8316 22.9516C14.8191 23.1039 14.8191 23.1039 14.7836 23.1747C14.7624 23.1747 14.7413 23.1747 14.7196 23.1747C14.718 23.199 14.7164 23.2233 14.7148 23.2483C14.7124 23.2812 14.71 23.3142 14.7076 23.3481C14.7053 23.3802 14.7031 23.4124 14.7008 23.4456C14.6907 23.5309 14.6766 23.6068 14.6564 23.6898C14.615 23.8679 14.6027 24.0466 14.5896 24.2287C14.5846 24.2948 14.5795 24.3609 14.5744 24.427C14.572 24.4586 14.5696 24.4902 14.5671 24.5227C14.5609 24.5936 14.5519 24.6642 14.5421 24.7347C14.5183 24.9145 14.5214 25.0956 14.5216 25.2766C14.5216 25.3157 14.5216 25.3548 14.5216 25.3951C14.5256 25.9992 14.5542 26.6382 14.6916 27.2291C14.7146 27.329 14.7261 27.4086 14.7196 27.51C14.7407 27.51 14.7618 27.51 14.7836 27.51C14.7894 27.5386 14.7952 27.5671 14.8012 27.5965C14.8799 27.9844 14.8799 27.9844 15.0116 28.3568C15.0542 28.4751 15.0612 28.5966 15.0716 28.7214C15.0927 28.7214 15.1138 28.7214 15.1356 28.7214C15.1997 28.892 15.262 29.0619 15.3116 29.2374C15.3419 29.3423 15.379 29.4354 15.4296 29.5322C15.4876 29.6458 15.4876 29.6458 15.4876 29.7414C15.5087 29.7414 15.5298 29.7414 15.5516 29.7414C15.5832 29.8572 15.6149 29.9729 15.6476 30.0921C15.6687 30.0921 15.6898 30.0921 15.7116 30.0921C15.73 30.1289 15.7485 30.1657 15.7676 30.2037C15.7794 30.2271 15.7912 30.2506 15.8034 30.2748C15.8256 30.3191 15.8474 30.3637 15.8687 30.4085C15.9467 30.5709 16.041 30.7194 16.1408 30.8695C16.1891 30.9487 16.2238 31.0253 16.2556 31.1122C16.2872 31.1122 16.3189 31.1122 16.3516 31.1122C16.3516 31.1648 16.3516 31.2174 16.3516 31.2715C16.3832 31.2821 16.4149 31.2926 16.4476 31.3034C16.4476 31.3245 16.4476 31.3455 16.4476 31.3672C16.468 31.3757 16.4885 31.3843 16.5096 31.3931C16.5756 31.4309 16.5756 31.4309 16.6076 31.5266C16.6287 31.5266 16.6498 31.5266 16.6716 31.5266C16.6716 31.5476 16.6716 31.5686 16.6716 31.5903C16.7032 31.6008 16.7349 31.6114 16.7676 31.6222C16.8063 31.6719 16.8063 31.6719 16.8436 31.7318C16.9146 31.8375 16.9687 31.863 17.0876 31.9091C17.0982 31.9622 17.1089 32.0154 17.1196 32.0685C17.1427 32.077 17.1658 32.0856 17.1896 32.0944C17.3101 32.1451 17.3507 32.2223 17.4242 32.327C17.4828 32.4015 17.5496 32.4365 17.6316 32.4829C17.6474 32.5098 17.6632 32.5368 17.6796 32.5646C17.7383 32.6596 17.7852 32.6684 17.8876 32.706C17.8981 32.7376 17.9087 32.7691 17.9196 32.8017C17.9834 32.8445 18.0474 32.887 18.1116 32.9292C18.1116 32.9502 18.1116 32.9712 18.1116 32.9929C18.1287 32.9955 18.1459 32.9982 18.1636 33.0009C18.2872 33.0398 18.3918 33.1111 18.4816 33.2041C18.5428 33.2625 18.6084 33.284 18.6876 33.3117C18.6876 33.3433 18.6876 33.3748 18.6876 33.4073C18.7179 33.41 18.7483 33.4126 18.7796 33.4153C18.8126 33.4232 18.8456 33.4311 18.8796 33.4392C18.8893 33.4597 18.8991 33.4803 18.9092 33.5015C18.9378 33.5719 18.9378 33.5719 19.0072 33.5956C19.0317 33.6018 19.0563 33.6081 19.0816 33.6145C19.2099 33.6522 19.2916 33.6988 19.3916 33.7898C19.5164 33.8935 19.6555 33.9478 19.8067 34.005C19.8613 34.0265 19.9146 34.0514 19.9676 34.0767C19.9781 34.1083 19.9887 34.1399 19.9996 34.1724C20.0636 34.2015 20.0636 34.2015 20.1396 34.2202C20.2511 34.2506 20.3044 34.2809 20.3836 34.3636C20.4412 34.3948 20.4412 34.3948 20.5016 34.4174C20.554 34.4381 20.554 34.4381 20.6076 34.4593C20.6076 34.4803 20.6076 34.5013 20.6076 34.523C20.6292 34.5265 20.6508 34.53 20.6731 34.5336C20.7016 34.5387 20.7302 34.5437 20.7596 34.5489C20.7878 34.5537 20.816 34.5585 20.8451 34.5635C20.9352 34.5889 20.9815 34.6266 21.0556 34.6824C21.1191 34.705 21.1831 34.7262 21.2476 34.7462C21.3084 34.7716 21.3691 34.7975 21.4296 34.8239C21.5876 34.8904 21.7444 34.9409 21.9107 34.9828C21.9676 34.9972 22.0238 35.0146 22.0796 35.0331C22.0796 35.0541 22.0796 35.0751 22.0796 35.0968C22.1053 35.1008 22.131 35.1047 22.1576 35.1088C22.2693 35.1283 22.3791 35.1522 22.4896 35.1775C22.5497 35.1903 22.6106 35.1997 22.6716 35.2084C22.698 35.2136 22.7244 35.2189 22.7516 35.2243C22.7621 35.2454 22.7727 35.2664 22.7836 35.2881C22.8504 35.3115 22.8504 35.3115 22.9314 35.328C22.9763 35.3383 22.9763 35.3383 23.0221 35.3488C23.0536 35.3557 23.0851 35.3626 23.1176 35.3698C23.1795 35.3837 23.2415 35.3977 23.3034 35.4117C23.3449 35.4209 23.3449 35.4209 23.3871 35.4302C23.4556 35.4475 23.4556 35.4475 23.5196 35.4793C23.6239 35.4934 23.7283 35.5053 23.833 35.5164C23.9799 35.5332 24.1144 35.5628 24.2556 35.6068C24.2556 35.6279 24.2556 35.6489 24.2556 35.6706C24.317 35.6696 24.3785 35.6685 24.4399 35.6675C24.5116 35.6706 24.5116 35.6706 24.5865 35.6857C24.6661 35.7014 24.7433 35.7111 24.8241 35.7184C24.8526 35.7211 24.8811 35.7237 24.9104 35.7264C24.9398 35.729 24.9693 35.7317 24.9996 35.7344C25.0577 35.7397 25.1159 35.745 25.1741 35.7503C25.1997 35.7526 25.2253 35.7549 25.2517 35.7573C25.3038 35.7624 25.3559 35.7677 25.4079 35.774C25.581 35.7947 25.7519 35.8041 25.9262 35.8071C25.9533 35.8077 25.9804 35.8083 26.0083 35.8089C26.094 35.8107 26.1798 35.8124 26.2656 35.8141C26.6101 35.8207 26.9524 35.8278 27.2956 35.8619C28.0703 35.9304 28.9169 35.9263 29.6832 35.7824C29.9518 35.7328 30.2172 35.7216 30.4896 35.7164C30.5554 35.715 30.6213 35.7135 30.6872 35.7119C30.7465 35.7104 30.8058 35.7092 30.8652 35.708C30.9783 35.7023 31.0877 35.6876 31.1996 35.6706C31.2522 35.6687 31.3049 35.6678 31.3576 35.6686C31.3823 35.6689 31.407 35.6692 31.4324 35.6695C31.4506 35.6699 31.4688 35.6702 31.4876 35.6706C31.4876 35.6496 31.4876 35.6285 31.4876 35.6068C31.5855 35.5868 31.6835 35.5669 31.7816 35.5471C31.8221 35.5388 31.8221 35.5388 31.8635 35.5303C32.2511 35.4522 32.6233 35.404 33.0196 35.4056C33.0409 35.4057 33.0622 35.4057 33.0842 35.4057C33.3752 35.4067 33.6627 35.4204 33.9516 35.4574C33.9809 35.4612 34.0103 35.4649 34.0405 35.4688C34.2066 35.4931 34.3445 35.5338 34.4956 35.6068C34.4956 35.6279 34.4956 35.6489 34.4956 35.6706C34.5213 35.6739 34.547 35.6772 34.5736 35.6806C34.7991 35.7239 34.9799 35.7909 35.1676 35.9256C35.2098 35.9478 35.2522 35.9695 35.2956 35.9894C35.2956 36.0104 35.2956 36.0315 35.2956 36.0531C35.3272 36.0531 35.3589 36.0531 35.3916 36.0531C35.4021 36.0742 35.4127 36.0952 35.4236 36.1169C35.4762 36.1399 35.5295 36.1613 35.5836 36.1806C35.5836 36.2017 35.5836 36.2227 35.5836 36.2444C35.6047 36.2444 35.6258 36.2444 35.6476 36.2444C35.7316 36.3201 35.7316 36.3201 35.8076 36.4038C35.8076 36.4248 35.8076 36.4459 35.8076 36.4675C35.832 36.4748 35.8564 36.482 35.8816 36.4895C35.9877 36.5411 36.0067 36.5893 36.0636 36.6907C36.1419 36.7749 36.2204 36.8476 36.3116 36.9178C36.3836 36.9776 36.3836 36.9776 36.4156 37.0732C36.4367 37.0837 36.4578 37.0942 36.4796 37.1051C36.5124 37.1577 36.5443 37.2109 36.5756 37.2645C36.5927 37.2868 36.6099 37.3092 36.6276 37.3322C36.6716 37.392 36.6716 37.392 36.7036 37.4876C36.7247 37.4981 36.7458 37.5086 36.7676 37.5195C36.7908 37.5826 36.8123 37.6463 36.8316 37.7107C36.8632 37.7107 36.8949 37.7107 36.9276 37.7107C36.9487 37.7844 36.9698 37.858 36.9916 37.9339C37.0127 37.9339 37.0338 37.9339 37.0556 37.9339C37.0556 37.9654 37.0556 37.997 37.0556 38.0295C37.0872 38.04 37.1189 38.0506 37.1516 38.0614C37.1621 38.1245 37.1727 38.1876 37.1836 38.2527C37.2152 38.2632 37.2469 38.2737 37.2796 38.2845C37.3256 38.3644 37.3663 38.4425 37.4056 38.5256C37.4163 38.5477 37.427 38.5697 37.438 38.5924C37.4598 38.6372 37.4814 38.6821 37.5028 38.7271C37.5352 38.7938 37.5691 38.8596 37.6032 38.9254C37.6587 39.0358 37.6997 39.1464 37.7356 39.2648C37.7463 39.2994 37.757 39.3341 37.7681 39.3699C37.7916 39.464 37.7916 39.464 37.7916 39.5915C37.8232 39.5915 37.8549 39.5915 37.8876 39.5915C37.9438 39.7351 37.9577 39.8521 37.9516 40.0059C37.9727 40.0059 37.9938 40.0059 38.0156 40.0059C38.1537 40.3607 38.2407 40.7046 38.2811 41.0822C38.2983 41.2428 38.3229 41.4002 38.3558 41.5584C38.3684 41.6371 38.3695 41.7115 38.3676 41.791C38.3887 41.791 38.4098 41.791 38.4316 41.791C38.4733 41.9157 38.4726 42.0374 38.4776 42.1676C38.4855 42.3472 38.4971 42.5221 38.5276 42.6995C38.5635 42.9271 38.5738 43.1549 38.5836 43.3849C38.5854 43.4226 38.5872 43.4603 38.5891 43.4991C38.5904 43.5351 38.5917 43.571 38.5931 43.608C38.5943 43.6402 38.5956 43.6725 38.5969 43.7057C38.591 43.8098 38.5646 43.8934 38.5276 43.9906C38.5064 43.9906 38.4853 43.9906 38.4636 43.9906C38.4636 44.0116 38.4636 44.0326 38.4636 44.0543C38.4319 44.0543 38.4002 44.0543 38.3676 44.0543C38.357 44.0859 38.3464 44.1174 38.3356 44.1499C38.2721 44.1829 38.2081 44.2148 38.1436 44.2456C38.133 44.2666 38.1224 44.2877 38.1116 44.3093C38.0588 44.3093 38.006 44.3093 37.9516 44.3093C37.9456 44.3277 37.9397 44.3461 37.9336 44.3651C37.8757 44.4553 37.8133 44.486 37.7197 44.5347C37.6554 44.5675 37.6554 44.5675 37.5676 44.6281C37.5359 44.6281 37.5042 44.6281 37.4716 44.6281C37.4716 44.6491 37.4716 44.6702 37.4716 44.6919C37.4478 44.7011 37.424 44.7103 37.3996 44.7197C37.3254 44.75 37.2546 44.7827 37.1836 44.8194C37.1836 44.8404 37.1836 44.8614 37.1836 44.8831C37.0876 44.9469 37.0876 44.9469 37.0036 44.9628C36.9659 44.9707 36.9659 44.9707 36.9276 44.9788C36.917 44.9998 36.9064 45.0208 36.8956 45.0425C36.8326 45.0763 36.7682 45.1076 36.7036 45.1381C36.4923 45.2407 36.4923 45.2407 36.2876 45.3553C36.2236 45.3932 36.2236 45.3932 36.1596 45.3932C36.1596 45.4142 36.1596 45.4352 36.1596 45.4569C36.0402 45.5218 35.9781 45.5525 35.8396 45.5525C35.8396 45.5736 35.8396 45.5946 35.8396 45.6163C35.7883 45.6431 35.737 45.6696 35.6856 45.696C35.6427 45.7182 35.6427 45.7182 35.5989 45.7408C35.5196 45.7757 35.5196 45.7757 35.4236 45.7757C35.413 45.8072 35.4024 45.8388 35.3916 45.8713C35.3369 45.8993 35.3369 45.8993 35.2696 45.9211C35.1967 45.9457 35.1318 45.9689 35.0636 46.0048C35.0076 46.0307 35.0076 46.0307 34.8796 46.0307C34.8796 46.0517 34.8796 46.0728 34.8796 46.0945C34.395 46.3495 34.395 46.3495 34.2076 46.3495C34.2076 46.3705 34.2076 46.3915 34.2076 46.4132C34.1759 46.4132 34.1442 46.4132 34.1116 46.4132C34.1116 46.4343 34.1116 46.4553 34.1116 46.477C34.0131 46.4863 34.0131 46.4863 33.9147 46.4957C33.8952 46.5 33.8757 46.5044 33.8556 46.5089C33.845 46.5299 33.8344 46.5509 33.8236 46.5726C33.7574 46.5928 33.7574 46.5928 33.6776 46.6085C33.6511 46.6138 33.6247 46.6192 33.5974 46.6247C33.577 46.6285 33.5566 46.6324 33.5356 46.6364C33.5356 46.6574 33.5356 46.6784 33.5356 46.7001C33.5176 46.7057 33.4997 46.7114 33.4813 46.7172C33.4 46.7427 33.3188 46.7682 33.2376 46.7938C33.1953 46.807 33.1953 46.807 33.1521 46.8206C33.125 46.8291 33.0979 46.8376 33.0699 46.8464C33.045 46.8543 33.02 46.8621 32.9943 46.8702C32.9399 46.8875 32.8857 46.9053 32.8316 46.9233C32.821 46.9443 32.8104 46.9653 32.7996 46.987C32.7322 47.0055 32.664 47.021 32.5956 47.0348C32.4714 47.0601 32.3937 47.0759 32.2876 47.1464C32.0458 47.2359 31.8093 47.2942 31.5516 47.3058C31.541 47.3373 31.5304 47.3689 31.5196 47.4014C31.4559 47.4254 31.4559 47.4254 31.3726 47.4423C31.327 47.4519 31.327 47.4519 31.2806 47.4618C31.2486 47.4682 31.2165 47.4746 31.1836 47.4811C30.9811 47.5227 30.7853 47.5674 30.59 47.6355C30.5109 47.662 30.4316 47.6793 30.3496 47.6943C30.3225 47.6993 30.2954 47.7044 30.2674 47.7096C30.2378 47.7148 30.2378 47.7148 30.2076 47.7202C30.2076 47.7412 30.2076 47.7623 30.2076 47.7839C30.1786 47.7855 30.1496 47.7871 30.1197 47.7887C29.9182 47.801 29.7264 47.8174 29.5306 47.8665C29.4567 47.8829 29.3869 47.8844 29.3116 47.8796C29.3116 47.9006 29.3116 47.9217 29.3116 47.9433C29.0172 48.017 28.7245 48.0667 28.4236 48.1047C28.1252 48.1401 28.1252 48.1401 27.8308 48.1981C27.5944 48.2541 27.3489 48.2704 27.1076 48.296C27.0564 48.3015 27.0051 48.3071 26.9539 48.3127C26.8324 48.326 26.7107 48.3387 26.5891 48.3513C26.538 48.3567 26.4868 48.3623 26.4358 48.368C26.1335 48.3997 25.8292 48.4012 25.5256 48.4075C25.495 48.4082 25.4644 48.4089 25.4328 48.4096C22.9165 48.4637 22.9165 48.4637 21.7596 48.3259C21.7032 48.3193 21.7032 48.3193 21.6456 48.3125C21.1205 48.2501 20.5983 48.1743 20.0772 48.084C19.9729 48.0663 19.8683 48.0505 19.7636 48.035C19.5957 48.0098 19.4296 47.9784 19.2636 47.9433C19.2636 47.9223 19.2636 47.9013 19.2636 47.8796C19.246 47.878 19.2285 47.8765 19.2104 47.8748C18.9605 47.8514 18.7122 47.818 18.4636 47.7839C18.4636 47.7629 18.4636 47.7419 18.4636 47.7202C18.4279 47.7169 18.3923 47.7136 18.3556 47.7102C18.1933 47.69 18.0428 47.6423 17.8876 47.5927C17.6347 47.512 17.3798 47.4541 17.1196 47.4014C17.1196 47.3699 17.1196 47.3383 17.1196 47.3058C17.0621 47.3018 17.0621 47.3018 17.0036 47.2978C16.7249 47.2675 16.456 47.1718 16.1916 47.0826C16.1916 47.0616 16.1916 47.0406 16.1916 47.0189C16.1559 47.0196 16.1203 47.0202 16.0836 47.0209C15.9676 47.0189 15.9676 47.0189 15.9036 46.987C15.9036 46.966 15.9036 46.9449 15.9036 46.9233C15.8626 46.9154 15.8217 46.9075 15.7796 46.8994C15.6374 46.868 15.5078 46.8203 15.3737 46.7645C15.2634 46.7186 15.1516 46.6777 15.0396 46.6364C15.0396 46.6153 15.0396 46.5943 15.0396 46.5726C14.9868 46.5726 14.934 46.5726 14.8796 46.5726C14.8796 46.5411 14.8796 46.5095 14.8796 46.477C14.7845 46.477 14.6895 46.477 14.5916 46.477C14.5916 46.4559 14.5916 46.4349 14.5916 46.4132C14.5493 46.4132 14.5071 46.4132 14.4636 46.4132C14.4636 46.3817 14.4636 46.3501 14.4636 46.3176C14.4108 46.3176 14.358 46.3176 14.3036 46.3176C14.3036 46.2966 14.3036 46.2755 14.3036 46.2538C14.2659 46.2486 14.2283 46.2433 14.1896 46.2379C14.0128 46.1997 13.8672 46.1165 13.7107 46.0297C13.6022 45.9697 13.4972 45.916 13.3796 45.8753C13.2796 45.8394 13.2796 45.8394 13.2476 45.7757C13.1735 45.7524 13.0988 45.731 13.0236 45.7119C13.0236 45.6909 13.0236 45.6698 13.0236 45.6482C12.9813 45.6377 12.9391 45.6271 12.8956 45.6163C12.8956 45.5953 12.8956 45.5742 12.8956 45.5525C12.8738 45.5486 12.852 45.5447 12.8296 45.5406C12.7219 45.5178 12.6172 45.4879 12.5116 45.4569C12.5116 45.4254 12.5116 45.3938 12.5116 45.3613C12.4845 45.3527 12.4574 45.3442 12.4296 45.3354C12.1068 45.2243 12.1068 45.2243 12.0636 45.1381C12.0043 45.1117 12.0043 45.1117 11.9356 45.0903C11.8656 45.0674 11.8656 45.0674 11.8076 45.0425C11.797 45.0215 11.7864 45.0004 11.7756 44.9788C11.7198 44.9557 11.6641 44.9327 11.6081 44.9104C11.5314 44.8734 11.4835 44.8153 11.4236 44.7556C11.3233 44.7152 11.3233 44.7152 11.2316 44.6919C11.2316 44.6708 11.2316 44.6498 11.2316 44.6281C11.2071 44.6189 11.1827 44.6097 11.1576 44.6002C11.0716 44.5643 11.0716 44.5643 10.9756 44.5006C10.9756 44.4796 10.9756 44.4585 10.9756 44.4368C10.9228 44.4263 10.87 44.4158 10.8156 44.405C10.8156 44.3839 10.8156 44.3629 10.8156 44.3412C10.7733 44.3307 10.7311 44.3202 10.6876 44.3093C10.6876 44.2883 10.6876 44.2673 10.6876 44.2456C10.6559 44.2456 10.6242 44.2456 10.5916 44.2456C10.5916 44.2245 10.5916 44.2035 10.5916 44.1818C10.5388 44.1713 10.486 44.1608 10.4316 44.1499C10.4316 44.1184 10.4316 44.0868 10.4316 44.0543C10.3471 44.0333 10.2626 44.0122 10.1756 43.9906C10.1756 43.9695 10.1756 43.9485 10.1756 43.9268C10.1439 43.9268 10.1122 43.9268 10.0796 43.9268C10.0796 43.8952 10.0796 43.8637 10.0796 43.8312C10.041 43.8184 10.041 43.8184 10.0016 43.8053C9.9745 43.7928 9.94744 43.7803 9.91956 43.7674C9.909 43.7359 9.89844 43.7043 9.88756 43.6718C9.82702 43.6501 9.82702 43.6501 9.75956 43.6399C9.66356 43.608 9.66356 43.608 9.60356 43.5323C9.53375 43.4464 9.47014 43.408 9.37556 43.353C9.37556 43.332 9.37556 43.3109 9.37556 43.2893C9.33332 43.2787 9.29108 43.2682 9.24756 43.2574C9.24756 43.2363 9.24756 43.2153 9.24756 43.1936C9.20532 43.1831 9.16308 43.1726 9.11956 43.1618C9.11956 43.1407 9.11956 43.1197 9.11956 43.098C9.09844 43.098 9.07732 43.098 9.05556 43.098C9.05556 43.077 9.05556 43.0559 9.05556 43.0342C9.00276 43.0132 8.94996 42.9922 8.89556 42.9705C8.89556 42.9494 8.89556 42.9284 8.89556 42.9067C8.87114 42.8975 8.84672 42.8883 8.82156 42.8788C8.73556 42.843 8.73556 42.843 8.63956 42.7792C8.63956 42.7477 8.63956 42.7161 8.63956 42.6836C8.61052 42.6764 8.58148 42.6691 8.55156 42.6617C8.43236 42.6137 8.38886 42.5667 8.31956 42.4605C8.31956 42.4394 8.31956 42.4184 8.31956 42.3967C8.26676 42.3967 8.21396 42.3967 8.15956 42.3967C8.149 42.3546 8.13844 42.3125 8.12756 42.2692C8.10644 42.2692 8.08532 42.2692 8.06356 42.2692C8.06356 42.2481 8.06356 42.2271 8.06356 42.2054C8.04244 42.2054 8.02132 42.2054 7.99956 42.2054C7.99956 42.1844 7.99956 42.1634 7.99956 42.1417C7.97098 42.1372 7.97098 42.1372 7.94181 42.1327C7.85528 42.1045 7.82718 42.069 7.77156 41.9982C7.7052 41.9125 7.7052 41.9125 7.61556 41.8548C7.61556 41.8337 7.61556 41.8127 7.61556 41.791C7.59444 41.791 7.57332 41.791 7.55156 41.791C7.55156 41.77 7.55156 41.749 7.55156 41.7273C7.53044 41.7273 7.50932 41.7273 7.48756 41.7273C7.48756 41.7062 7.48756 41.6852 7.48756 41.6635C7.46776 41.6609 7.44796 41.6583 7.42756 41.6556C7.33757 41.6239 7.33721 41.5871 7.29556 41.5041C7.2685 41.4884 7.24144 41.4726 7.21356 41.4563C7.13556 41.4085 7.13556 41.4085 7.10956 41.3388C7.10758 41.3197 7.1056 41.3006 7.10356 41.281C7.08244 41.281 7.06132 41.281 7.03956 41.281C7.03956 41.26 7.03956 41.2389 7.03956 41.2172C7.01844 41.2172 6.99732 41.2172 6.97556 41.2172C6.97556 41.1962 6.97556 41.1752 6.97556 41.1535C6.93332 41.143 6.89108 41.1324 6.84756 41.1216C6.84756 41.1006 6.84756 41.0795 6.84756 41.0579C6.82644 41.0579 6.80532 41.0579 6.78356 41.0579C6.78356 41.0263 6.78356 40.9947 6.78356 40.9622C6.76244 40.9622 6.74132 40.9622 6.71956 40.9622C6.71956 40.9307 6.71956 40.8991 6.71956 40.8666C6.67732 40.8666 6.63508 40.8666 6.59156 40.8666C6.59156 40.835 6.59156 40.8035 6.59156 40.771C6.57044 40.771 6.54932 40.771 6.52756 40.771C6.52756 40.7499 6.52756 40.7289 6.52756 40.7072C6.49588 40.7072 6.4642 40.7072 6.43156 40.7072C6.33556 40.5726 6.33556 40.5726 6.33556 40.4841C6.30388 40.4841 6.2722 40.4841 6.23956 40.4841C6.23956 40.4525 6.23956 40.4209 6.23956 40.3884C6.21976 40.3812 6.19996 40.374 6.17956 40.3665C6.09191 40.3126 6.07795 40.2612 6.04756 40.1653C6.02644 40.1653 6.00532 40.1653 5.98356 40.1653C5.98356 40.1443 5.98356 40.1232 5.98356 40.1015C5.96244 40.1015 5.94132 40.1015 5.91956 40.1015C5.91956 40.0805 5.91956 40.0595 5.91956 40.0378C5.89844 40.0378 5.87732 40.0378 5.85556 40.0378C5.75956 39.898 5.75956 39.898 5.75956 39.8146C5.72788 39.8146 5.6962 39.8146 5.66356 39.8146C5.66356 39.7936 5.66356 39.7726 5.66356 39.7509C5.64244 39.7509 5.62132 39.7509 5.59956 39.7509C5.589 39.6983 5.57844 39.6457 5.56756 39.5915C5.53588 39.5915 5.5042 39.5915 5.47156 39.5915C5.43281 39.5413 5.43281 39.5413 5.39556 39.474C5.34205 39.3821 5.29945 39.3247 5.22156 39.2488C5.15156 39.1771 5.15156 39.1771 5.15156 39.0496C5.11988 39.0496 5.0882 39.0496 5.05556 39.0496C4.99156 38.954 4.99156 38.954 4.99156 38.8583C4.95988 38.8583 4.9282 38.8583 4.89556 38.8583C4.89556 38.8373 4.89556 38.8162 4.89556 38.7946C4.87444 38.7946 4.85332 38.7946 4.83156 38.7946C4.8243 38.7663 4.81704 38.738 4.80956 38.7089C4.76088 38.5865 4.70169 38.5356 4.60756 38.4439C4.51768 38.3223 4.43169 38.2052 4.38356 38.0614C4.35188 38.0509 4.3202 38.0404 4.28756 38.0295C4.28756 37.9874 4.28756 37.9454 4.28756 37.902C4.26644 37.902 4.24532 37.902 4.22356 37.902C4.22356 37.8599 4.22356 37.8179 4.22356 37.7745C4.19188 37.7745 4.1602 37.7745 4.12756 37.7745C4.06927 37.712 4.03583 37.6646 4.01556 37.5812C4.00462 37.517 4.00462 37.517 3.95544 37.4765C3.89671 37.4169 3.86421 37.3584 3.82556 37.2844C3.7813 37.2025 3.74075 37.1335 3.68156 37.0612C3.56549 36.9141 3.42356 36.7224 3.42356 36.5313C3.39914 36.5267 3.37472 36.5221 3.34956 36.5173C3.23277 36.4497 3.23087 36.3852 3.19556 36.2601C3.16541 36.1745 3.12623 36.1129 3.07356 36.0392C2.96845 35.8909 2.84756 35.6983 2.84756 35.5112C2.81588 35.5112 2.7842 35.5112 2.75156 35.5112C2.73882 35.4784 2.73882 35.4784 2.72581 35.4449C2.71451 35.4161 2.70321 35.3874 2.69156 35.3578C2.68042 35.3293 2.66929 35.3009 2.65781 35.2715C2.62394 35.1868 2.62394 35.1868 2.55956 35.0968C2.55956 35.0547 2.55956 35.0127 2.55956 34.9693C2.53844 34.9693 2.51732 34.9693 2.49556 34.9693C2.47972 34.8746 2.47972 34.8746 2.46356 34.778C2.44244 34.778 2.42132 34.778 2.39956 34.778C2.39106 34.7531 2.38257 34.7282 2.37381 34.7025C2.35686 34.6541 2.35686 34.6541 2.33956 34.6047C2.32842 34.5725 2.31729 34.5404 2.30581 34.5072C2.27986 34.4229 2.27986 34.4229 2.20756 34.3955C2.18451 34.3324 2.1634 34.2685 2.14356 34.2043C2.13168 34.176 2.1198 34.1477 2.10756 34.1186C2.07956 34.0449 2.07956 34.0449 2.07956 33.9492C2.04788 33.9492 2.0162 33.9492 1.98356 33.9492C1.95188 33.802 1.9202 33.6547 1.88756 33.503C1.86644 33.503 1.84532 33.503 1.82356 33.503C1.61756 33.0636 1.61756 33.0636 1.63156 32.8335C1.61044 32.8335 1.58932 32.8335 1.56756 32.8335C1.56756 32.7809 1.56756 32.7283 1.56756 32.6741C1.54644 32.6741 1.52532 32.6741 1.50356 32.6741C1.50356 32.6215 1.50356 32.569 1.50356 32.5148C1.48244 32.5148 1.46132 32.5148 1.43956 32.5148C1.38879 32.3765 1.36219 32.2462 1.34356 32.1004C1.33333 32.0471 1.32285 31.994 1.31156 31.941C1.29044 31.941 1.26932 31.941 1.24756 31.941C1.18487 31.7493 1.13824 31.5681 1.11956 31.3672C1.09844 31.3672 1.07732 31.3672 1.05556 31.3672C1.03391 31.2969 1.01265 31.2265 0.991562 31.156C0.973742 31.0972 0.973742 31.0972 0.955562 31.0372C0.92957 30.9292 0.922109 30.84 0.927562 30.7296C0.906442 30.7296 0.885322 30.7296 0.863562 30.7296C0.84187 30.6547 0.820605 30.5796 0.799562 30.5045C0.793457 30.4836 0.787352 30.4626 0.781062 30.4411C0.742092 30.3003 0.72941 30.1756 0.735562 30.0283C0.714442 30.0283 0.693322 30.0283 0.671562 30.0283C0.668056 30.0002 0.66455 29.972 0.660937 29.943C0.632058 29.7253 0.595885 29.5179 0.530312 29.308C0.510406 29.2267 0.508281 29.1554 0.511562 29.072C0.490442 29.072 0.469322 29.072 0.447562 29.072C0.409806 28.9119 0.404271 28.7509 0.396187 28.5873C0.390277 28.4792 0.380053 28.3795 0.351562 28.2751C0.350318 28.2007 0.350127 28.1263 0.351562 28.052C0.330442 28.052 0.309322 28.052 0.287562 28.052C0.209886 27.6403 0.164207 27.2301 0.131391 26.8127C0.123571 26.7132 0.11541 26.6138 0.107187 26.5144C0.0809762 26.1933 0.0568734 25.8724 0.0426934 25.5505C0.0379391 25.4321 0.0379401 25.4321 0.0153203 25.3163C-0.00555907 25.2242 -0.00451193 25.1376 -0.00457813 25.0431C-0.00467899 25.0018 -0.00477889 24.9606 -0.00488281 24.918C-0.00482555 24.8731 -0.00476089 24.8282 -0.0046875 24.7833C-0.00470906 24.7372 -0.0047411 24.6911 -0.00478125 24.6449C-0.00482838 24.5484 -0.00475901 24.4519 -0.00460938 24.3554C-0.00442674 24.2315 -0.00453319 24.1077 -0.00472461 23.9838C-0.00484008 23.8887 -0.00480175 23.7935 -0.00471875 23.6983C-0.00469738 23.6527 -0.00472443 23.607 -0.00479883 23.5613C-0.00487986 23.4976 -0.00473463 23.4339 -0.00457813 23.3702C-0.00455267 23.3339 -0.00452623 23.2976 -0.0045 23.2602C-0.000436524 23.1747 -0.0004375 23.1747 0.0315625 23.111C0.0374825 23.0554 0.0416281 22.9996 0.0449141 22.9437C0.0470612 22.9087 0.0492078 22.8736 0.0514199 22.8375C0.0536531 22.7991 0.0558867 22.7608 0.0581875 22.7214C0.0633188 22.6395 0.0684652 22.5576 0.073625 22.4757C0.0816092 22.3473 0.0894197 22.2189 0.0969766 22.0904C0.130153 21.5313 0.185611 20.9844 0.287562 20.4333C0.308682 20.4333 0.329802 20.4333 0.351562 20.4333C0.350902 20.3945 0.350242 20.3557 0.349562 20.3157C0.348305 20.2419 0.351699 20.1776 0.366687 20.1051C0.395931 19.9557 0.398112 19.8039 0.406562 19.6522C0.413434 19.5671 0.422714 19.4943 0.447562 19.4132C0.468682 19.4132 0.489802 19.4132 0.511562 19.4132C0.513879 19.3846 0.513879 19.3846 0.516242 19.3554C0.534435 19.1521 0.567556 18.9554 0.609562 18.7558C0.615523 18.7268 0.621484 18.6978 0.627625 18.668C0.642128 18.5976 0.656775 18.5272 0.671562 18.4569C0.692682 18.4569 0.713802 18.4569 0.735562 18.4569C0.732592 18.4125 0.732592 18.4125 0.729562 18.3673C0.728743 18.1676 0.800788 17.9751 0.863562 17.7875C0.884682 17.7875 0.905802 17.7875 0.927562 17.7875C0.924922 17.7546 0.922282 17.7217 0.919562 17.6879C0.918059 17.4804 0.993699 17.2821 1.05556 17.0862C1.07668 17.0862 1.0978 17.0862 1.11956 17.0862C1.12286 17.0448 1.12616 17.0033 1.12956 16.9607C1.14671 16.8024 1.19154 16.6609 1.24756 16.5124C1.26868 16.5124 1.2898 16.5124 1.31156 16.5124C1.31156 16.4598 1.31156 16.4072 1.31156 16.353C1.33268 16.353 1.3538 16.353 1.37556 16.353C1.37424 16.3195 1.37292 16.2859 1.37156 16.2514C1.37529 16.1382 1.39067 16.0709 1.43956 15.9705C1.46068 15.9705 1.4818 15.9705 1.50356 15.9705C1.5062 15.935 1.50884 15.8995 1.51156 15.8629C1.52867 15.7218 1.57643 15.6025 1.63356 15.473C1.66433 15.3947 1.6814 15.32 1.69556 15.2373C1.71668 15.2373 1.7378 15.2373 1.75956 15.2373C1.77012 15.1637 1.78068 15.09 1.79156 15.0142C1.82324 15.0036 1.85492 14.9931 1.88756 14.9823C1.89152 14.9619 1.89548 14.9415 1.89956 14.9205C1.9259 14.792 1.95473 14.664 1.98356 14.536C2.00468 14.536 2.0258 14.536 2.04756 14.536C2.04756 14.515 2.04756 14.4939 2.04756 14.4723C2.06868 14.4723 2.0898 14.4723 2.11156 14.4723C2.11024 14.4479 2.10892 14.4236 2.10756 14.3985C2.11156 14.3129 2.11156 14.3129 2.17556 14.2172C2.18084 14.1896 2.18612 14.162 2.19156 14.1336C2.19684 14.1086 2.20212 14.0836 2.20756 14.0579C2.22868 14.0473 2.2498 14.0368 2.27156 14.026C2.29937 13.9681 2.29937 13.9681 2.32156 13.9005C2.34511 13.8335 2.36769 13.7707 2.39956 13.7072C2.42068 13.7072 2.4418 13.7072 2.46356 13.7072C2.46092 13.6848 2.45828 13.6625 2.45556 13.6395C2.46626 13.5169 2.52032 13.4559 2.59156 13.3566C2.65014 13.2511 2.68875 13.1608 2.71956 13.0438C2.73012 13.0102 2.74068 12.9767 2.75156 12.9422C2.78324 12.9316 2.81492 12.9211 2.84756 12.9103C2.8735 12.8529 2.8735 12.8529 2.88956 12.7828C2.92384 12.6697 2.96487 12.5841 3.03356 12.4879C3.15857 12.3122 3.24147 12.1188 3.32756 11.9221C3.35924 11.9221 3.39092 11.9221 3.42356 11.9221C3.44468 11.8379 3.4658 11.7538 3.48756 11.6671C3.50868 11.6671 3.5298 11.6671 3.55156 11.6671C3.56047 11.6296 3.56047 11.6296 3.56956 11.5914C3.62331 11.4563 3.69773 11.3523 3.78344 11.2356C3.84158 11.157 3.84158 11.157 3.89069 11.0675C3.9055 11.0444 3.9203 11.0214 3.93556 10.9976C3.95668 10.9976 3.9778 10.9976 3.99956 10.9976C4.00286 10.9746 4.00616 10.9516 4.00956 10.9279C4.03391 10.8287 4.06647 10.7608 4.12756 10.6789C4.15924 10.6789 4.19092 10.6789 4.22356 10.6789C4.22938 10.6562 4.23519 10.6336 4.24119 10.6103C4.24923 10.581 4.25727 10.5517 4.26556 10.5215C4.27336 10.4923 4.28115 10.463 4.28919 10.4329C4.29921 10.4089 4.30923 10.3849 4.31956 10.3601C4.35124 10.3496 4.38292 10.3391 4.41556 10.3282C4.46592 10.2671 4.46592 10.2671 4.51156 10.1927C4.52823 10.1669 4.54489 10.1411 4.56206 10.1145C4.59673 10.0588 4.63038 10.0024 4.66356 9.94569C4.70356 9.88194 4.70356 9.88194 4.76756 9.85006C4.80347 9.79013 4.80347 9.79013 4.83556 9.72056C4.84686 9.69718 4.85817 9.6738 4.86981 9.64971C4.87831 9.63167 4.88681 9.61363 4.89556 9.59504C4.92724 9.59504 4.95892 9.59504 4.99156 9.59504C5.02597 9.51049 5.05859 9.42661 5.08756 9.34002C5.13356 9.28623 5.13356 9.28623 5.18356 9.24439C5.20468 9.24439 5.2258 9.24439 5.24756 9.24439C5.24954 9.22664 5.25152 9.20889 5.25356 9.1906C5.29018 9.08677 5.3604 9.03241 5.43956 8.9575C5.45012 8.93646 5.46068 8.91542 5.47156 8.89374C5.49268 8.89374 5.5138 8.89374 5.53556 8.89374C5.55668 8.84115 5.5778 8.78855 5.59956 8.73436C5.62068 8.73436 5.6418 8.73436 5.66356 8.73436C5.66356 8.71332 5.66356 8.69228 5.66356 8.6706C5.68468 8.6706 5.7058 8.6706 5.72756 8.6706C5.73845 8.63707 5.73845 8.63707 5.74956 8.60286C5.80972 8.47159 5.88451 8.34523 6.02556 8.29206C6.05229 8.29009 6.05229 8.29009 6.07956 8.28808C6.07956 8.246 6.07956 8.20392 6.07956 8.16057C6.10068 8.16057 6.1218 8.16057 6.14356 8.16057C6.15412 8.12901 6.16468 8.09745 6.17556 8.06494C6.19668 8.06494 6.2178 8.06494 6.23956 8.06494C6.23956 8.0439 6.23956 8.02286 6.23956 8.00118C6.27124 8.00118 6.30292 8.00118 6.33556 8.00118C6.34018 7.98146 6.3448 7.96173 6.34956 7.94141C6.36756 7.87367 6.36756 7.87367 6.39956 7.80992C6.43124 7.80992 6.46292 7.80992 6.49556 7.80992C6.49556 7.78888 6.49556 7.76784 6.49556 7.74616C6.51668 7.74616 6.5378 7.74616 6.55956 7.74616C6.5622 7.72118 6.56484 7.6962 6.56756 7.67045C6.59156 7.58678 6.59156 7.58678 6.65556 7.54892C6.68724 7.5361 6.68724 7.5361 6.71956 7.52302C6.73012 7.50198 6.74068 7.48095 6.75156 7.45927C6.77268 7.45927 6.7938 7.45927 6.81556 7.45927C6.82282 7.44086 6.83008 7.42245 6.83756 7.40348C6.87956 7.33176 6.87956 7.33176 6.95756 7.27C7.04328 7.20909 7.04328 7.20909 7.08956 7.12057C7.14076 7.03632 7.17517 7.01927 7.26356 6.98111C7.27412 6.96007 7.28468 6.93903 7.29556 6.91736C7.31668 6.91736 7.3378 6.91736 7.35956 6.91736C7.36451 6.88678 7.36451 6.88678 7.36956 6.85559C7.37682 6.8339 7.38408 6.8122 7.39156 6.78985C7.42324 6.77933 7.45492 6.76881 7.48756 6.75797C7.50868 6.72641 7.5298 6.69485 7.55156 6.66234C7.57268 6.66234 7.5938 6.66234 7.61556 6.66234C7.61556 6.6413 7.61556 6.62026 7.61556 6.59858C7.63668 6.59858 7.6578 6.59858 7.67956 6.59858C7.67956 6.57754 7.67956 6.55651 7.67956 6.53483C7.70068 6.53483 7.7218 6.53483 7.74356 6.53483C7.74356 6.51379 7.74356 6.49275 7.74356 6.47108C7.77524 6.47108 7.80692 6.47108 7.83956 6.47108C7.85012 6.43952 7.86068 6.40796 7.87156 6.37544C7.89268 6.37544 7.9138 6.37544 7.93556 6.37544C7.93556 6.34388 7.93556 6.31233 7.93556 6.27981C7.96064 6.27784 7.98572 6.27587 8.01156 6.27383C8.03928 6.26529 8.067 6.25674 8.09556 6.24793C8.11785 6.1952 8.13911 6.14202 8.15956 6.08855C8.21174 6.05483 8.26525 6.02311 8.31956 5.99292C8.34794 5.96465 8.37632 5.93637 8.40556 5.90725C8.42998 5.88292 8.4544 5.85859 8.47956 5.83353C8.50068 5.83353 8.5218 5.83353 8.54356 5.83353C8.54356 5.81249 8.54356 5.79145 8.54356 5.76978C8.57524 5.76978 8.60692 5.76978 8.63956 5.76978C8.63956 5.73822 8.63956 5.70666 8.63956 5.67414C8.67718 5.66132 8.67718 5.66132 8.71556 5.64824C8.80856 5.61523 8.80856 5.61523 8.86356 5.51476C8.88468 5.51476 8.9058 5.51476 8.92756 5.51476C8.92756 5.49372 8.92756 5.47268 8.92756 5.451C8.9698 5.44048 9.01204 5.42997 9.05556 5.41913C9.05556 5.39809 9.05556 5.37705 9.05556 5.35537C9.11914 5.31225 9.18316 5.26976 9.24756 5.22786C9.25812 5.20682 9.26868 5.18579 9.27956 5.16411C9.31124 5.16411 9.34292 5.16411 9.37556 5.16411C9.38645 5.13551 9.38645 5.13551 9.39756 5.10633C9.45124 5.0172 9.50898 4.99133 9.59956 4.94097C9.62794 4.91796 9.65632 4.89495 9.68556 4.87124C9.75956 4.81346 9.75956 4.81346 9.82356 4.81346C9.82356 4.79242 9.82356 4.77138 9.82356 4.74971C9.87636 4.73919 9.92916 4.72867 9.98356 4.71783C9.98356 4.69679 9.98356 4.67575 9.98356 4.65407C10.0047 4.65407 10.0258 4.65407 10.0476 4.65407C10.0476 4.63303 10.0476 4.612 10.0476 4.59032C10.0687 4.59032 10.0898 4.59032 10.1116 4.59032C10.1116 4.56928 10.1116 4.54824 10.1116 4.52656C10.132 4.51736 10.1525 4.50816 10.1736 4.49867C10.2444 4.46829 10.2444 4.46829 10.2716 4.39906C10.3072 4.38525 10.3072 4.38525 10.3436 4.37116C10.4433 4.3305 10.5079 4.27525 10.5916 4.20779C10.6312 4.1846 10.6712 4.16203 10.7116 4.14005C10.8169 4.09218 10.8169 4.09218 10.8476 4.01653C10.9277 3.97386 11.0098 3.93687 11.0924 3.89911C11.1764 3.85967 11.1764 3.85967 11.2316 3.76151C11.2665 3.75231 11.3015 3.7431 11.3376 3.73362C11.4729 3.69248 11.5208 3.64027 11.6156 3.53837C11.7583 3.44105 11.9201 3.34711 12.0956 3.34711C12.1061 3.30503 12.1167 3.26295 12.1276 3.2196C12.1526 3.2138 12.1776 3.20801 12.2034 3.20204C12.2358 3.19403 12.2682 3.18602 12.3016 3.17776C12.3339 3.16999 12.3662 3.16223 12.3994 3.15423C12.4259 3.14424 12.4523 3.13425 12.4796 3.12397C12.4901 3.09241 12.5007 3.06085 12.5116 3.02834C12.5857 2.99535 12.6604 2.96345 12.7356 2.9327C12.7461 2.91166 12.7567 2.89063 12.7676 2.86895C12.8286 2.84549 12.8897 2.82225 12.9513 2.80046C13.0984 2.74519 13.2362 2.67268 13.3696 2.59002C13.4396 2.55018 13.4396 2.55018 13.5356 2.55018C13.5356 2.52914 13.5356 2.5081 13.5356 2.48642C13.5778 2.48642 13.62 2.48642 13.6636 2.48642C13.6636 2.46538 13.6636 2.44434 13.6636 2.42267C13.748 2.41215 13.8325 2.40163 13.9196 2.39079C13.9196 2.35923 13.9196 2.32767 13.9196 2.29516C13.9618 2.29516 14.004 2.29516 14.0476 2.29516C14.0476 2.27412 14.0476 2.25308 14.0476 2.23141C14.107 2.21563 14.107 2.21563 14.1676 2.19953C14.1898 2.19361 14.2121 2.18769 14.2351 2.1816C14.3036 2.16765 14.3036 2.16765 14.4316 2.16765C14.4421 2.13609 14.4527 2.10453 14.4636 2.07202C14.5058 2.07202 14.548 2.07202 14.5916 2.07202C14.5916 2.05098 14.5916 2.02994 14.5916 2.00826C14.6338 2.00826 14.676 2.00826 14.7196 2.00826C14.7196 1.98723 14.7196 1.96619 14.7196 1.94451C14.8146 1.93399 14.9096 1.92347 15.0076 1.91263C15.0076 1.89159 15.0076 1.87056 15.0076 1.84888C15.0257 1.84271 15.0438 1.83655 15.0624 1.8302C15.0859 1.8219 15.1094 1.8136 15.1336 1.80505C15.1569 1.79691 15.1803 1.78878 15.2044 1.78039C15.2695 1.75794 15.2695 1.75794 15.2956 1.68949C15.3852 1.66235 15.3852 1.66235 15.4976 1.63769C15.5528 1.62524 15.5528 1.62524 15.6092 1.61254C15.7116 1.59386 15.7116 1.59386 15.8396 1.59386C15.8396 1.5623 15.8396 1.53074 15.8396 1.49823C15.8848 1.48205 15.9302 1.46617 15.9756 1.45041C16.0008 1.44154 16.0261 1.43266 16.0521 1.42352C16.1276 1.4026 16.1276 1.4026 16.2556 1.4026C16.2556 1.38156 16.2556 1.36052 16.2556 1.33884C16.3627 1.29881 16.4551 1.27435 16.5696 1.26313C16.7 1.24954 16.8008 1.20274 16.9183 1.14683C17.0135 1.10637 17.1081 1.08761 17.2093 1.06776C17.3003 1.04728 17.3845 1.01574 17.4709 0.981221C17.629 0.920289 17.7795 0.880612 17.9476 0.8567C17.9844 0.851358 18.0213 0.846016 18.0593 0.840513C18.0871 0.83665 18.1149 0.832787 18.1436 0.828808C18.1436 0.807769 18.1436 0.78673 18.1436 0.765053C18.7091 0.618665 18.7091 0.618665 19.0076 0.637544C19.0076 0.616505 19.0076 0.595466 19.0076 0.57379C19.178 0.538216 19.3486 0.503092 19.5193 0.468337C19.577 0.456519 19.6347 0.44459 19.6924 0.432537C20.1733 0.332176 20.6585 0.247243 21.1516 0.255018C21.1516 0.233979 21.1516 0.21294 21.1516 0.191263C21.4987 0.139608 21.8432 0.109738 22.1936 0.091647C22.231 0.0896216 22.231 0.0896216 22.2691 0.0875553C22.6755 0.0656671 23.0806 0.0557174 23.4876 0.0637544C23.4876 0.0427155 23.4876 0.0216765 23.4876 0Z" fill="#FD6600"/>
<path d="M47.2617 38.6631C47.2834 38.663 47.3051 38.6629 47.3275 38.6628C47.3898 38.6626 47.4522 38.6627 47.5145 38.6628C47.551 38.6629 47.5874 38.6629 47.6249 38.6629C47.7117 38.6671 47.7117 38.6671 47.7757 38.6989C47.7757 38.72 47.7757 38.741 47.7757 38.7627C47.8171 38.7616 47.8586 38.7605 47.9013 38.7593C48.2524 38.753 48.5822 38.7736 48.9275 38.8374C49.0355 38.8571 49.1378 38.8596 49.2477 38.8583C49.2688 38.8688 49.2899 38.8794 49.3117 38.8902C49.3117 38.9112 49.3117 38.9323 49.3117 38.954C49.3661 38.953 49.3661 38.953 49.4217 38.952C49.5357 38.954 49.5357 38.954 49.5677 38.9858C49.6215 38.9933 49.6755 38.999 49.7297 39.0038C49.7591 39.0064 49.7885 39.0091 49.8188 39.0119C49.8415 39.0138 49.8642 39.0157 49.8877 39.0177C49.8877 39.0387 49.8877 39.0598 49.8877 39.0815C49.9202 39.0827 49.9202 39.0827 49.9534 39.084C50.1523 39.096 50.3112 39.1316 50.4927 39.2141C50.5625 39.2468 50.5625 39.2468 50.6557 39.2408C50.7091 39.2508 50.7625 39.2613 50.8157 39.2727C50.8157 39.2938 50.8157 39.3148 50.8157 39.3365C50.8407 39.3352 50.8658 39.3338 50.8917 39.3325C50.9757 39.3365 50.9757 39.3365 51.0397 39.4002C51.1384 39.4356 51.2384 39.4654 51.3388 39.4959C51.4237 39.5277 51.4237 39.5277 51.4557 39.5915C51.4768 39.5915 51.4979 39.5915 51.5197 39.5915C51.5302 39.5705 51.5408 39.5494 51.5517 39.5277C51.5517 39.5593 51.5517 39.5909 51.5517 39.6234C51.57 39.6276 51.5883 39.6318 51.6072 39.6362C51.6789 39.6551 51.7464 39.6786 51.8157 39.7051C51.8496 39.7179 51.8496 39.7179 51.8842 39.7311C51.9012 39.7376 51.9182 39.7442 51.9357 39.7509C51.9357 39.7824 51.9357 39.814 51.9357 39.8465C51.9693 39.8445 52.003 39.8426 52.0377 39.8405C52.165 39.8468 52.2219 39.8625 52.3197 39.9421C52.3197 39.9737 52.3197 40.0053 52.3197 40.0378C52.3936 40.0483 52.4675 40.0588 52.5437 40.0697C52.5437 40.0907 52.5437 40.1117 52.5437 40.1334C52.5753 40.1334 52.607 40.1334 52.6397 40.1334C52.6397 40.1544 52.6397 40.1755 52.6397 40.1972C52.6601 40.2044 52.6806 40.2116 52.7017 40.2191C52.8359 40.2764 52.9609 40.3482 53.0877 40.4203C53.0877 40.4519 53.0877 40.4834 53.0877 40.5159C53.1352 40.5002 53.1352 40.5002 53.1837 40.4841C53.1942 40.5051 53.2048 40.5261 53.2157 40.5478C53.279 40.571 53.343 40.5924 53.4077 40.6116C53.4077 40.6431 53.4077 40.6747 53.4077 40.7072C53.4463 40.719 53.4463 40.719 53.4857 40.7311C53.5677 40.771 53.5677 40.771 53.5937 40.8387C53.5956 40.8584 53.5976 40.8781 53.5997 40.8985C53.6188 40.9031 53.6379 40.9077 53.6577 40.9124C53.7136 40.9267 53.7688 40.944 53.8237 40.9622C53.8777 41.0598 53.8777 41.0598 53.9197 41.1535C53.9619 41.1535 54.0041 41.1535 54.0477 41.1535C54.0815 41.2055 54.1133 41.2588 54.1437 41.3129C54.1859 41.3453 54.2285 41.3773 54.2717 41.4085C54.2717 41.4295 54.2717 41.4506 54.2717 41.4723C54.3033 41.4828 54.335 41.4933 54.3677 41.5041C54.3677 41.5462 54.3677 41.5883 54.3677 41.6316C54.3875 41.6336 54.4073 41.6356 54.4277 41.6376C54.4501 41.6462 54.4725 41.6547 54.4957 41.6635C54.517 41.7166 54.5383 41.7698 54.5597 41.8229C54.625 41.8512 54.625 41.8512 54.6877 41.8548C54.6877 41.8969 54.6877 41.9389 54.6877 41.9823C54.7193 41.9928 54.751 42.0033 54.7837 42.0142C54.7837 42.0457 54.7837 42.0773 54.7837 42.1098C54.8153 42.1203 54.847 42.1308 54.8797 42.1417C54.9757 42.3081 54.9757 42.3081 54.9757 42.3967C55.0073 42.3967 55.039 42.3967 55.0717 42.3967C55.0932 42.4424 55.1145 42.4883 55.1357 42.5342C55.1475 42.5597 55.1594 42.5852 55.1717 42.6115C55.1997 42.6836 55.1997 42.6836 55.1997 42.7792C55.2208 42.7792 55.2419 42.7792 55.2637 42.7792C55.3112 42.937 55.3112 42.937 55.3597 43.098C55.3913 43.098 55.423 43.098 55.4557 43.098C55.4557 43.1401 55.4557 43.1821 55.4557 43.2255C55.4768 43.2255 55.4979 43.2255 55.5197 43.2255C55.5239 43.2536 55.5282 43.2816 55.5325 43.3105C55.5382 43.3476 55.5438 43.3846 55.5497 43.4227C55.5552 43.4594 55.5608 43.496 55.5665 43.5337C55.5809 43.6228 55.5971 43.711 55.6157 43.7993C55.6473 43.7993 55.679 43.7993 55.7117 43.7993C55.9251 44.7372 56.0922 45.7717 55.9677 46.732C55.9465 46.732 55.9254 46.732 55.9037 46.732C55.9051 46.7929 55.9051 46.7929 55.9067 46.855C55.9067 47.0219 55.8832 47.1813 55.8557 47.3456C55.8206 47.5455 55.8206 47.5455 55.8077 47.7473C55.8077 47.825 55.7899 47.8761 55.7597 47.9473C55.7242 48.0314 55.7117 48.0728 55.7117 48.1665C55.6905 48.1665 55.6694 48.1665 55.6477 48.1665C55.6378 48.224 55.6378 48.224 55.6278 48.2828C55.6191 48.333 55.6104 48.3832 55.6017 48.4334C55.5952 48.4714 55.5952 48.4714 55.5886 48.5101C55.5553 48.7012 55.5553 48.7012 55.5197 48.7721C55.4985 48.7721 55.4774 48.7721 55.4557 48.7721C55.4524 48.8103 55.4491 48.8484 55.4457 48.8877C55.43 49.0143 55.389 49.1059 55.3277 49.2184C55.3053 49.2818 55.2836 49.3455 55.2637 49.4097C55.2425 49.4097 55.2214 49.4097 55.1997 49.4097C55.2023 49.4373 55.2049 49.4649 55.2077 49.4934C55.1978 49.6262 55.1549 49.6897 55.0717 49.7922C55.0505 49.7922 55.0294 49.7922 55.0077 49.7922C55.0103 49.8146 55.0129 49.8369 55.0157 49.8599C55.005 49.9815 54.9502 50.0449 54.8797 50.1429C54.8691 50.1744 54.8585 50.206 54.8477 50.2385C54.8265 50.2385 54.8054 50.2385 54.7837 50.2385C54.7738 50.2687 54.7639 50.299 54.7537 50.3301C54.7197 50.4297 54.7197 50.4297 54.6877 50.4935C54.6665 50.4935 54.6454 50.4935 54.6237 50.4935C54.6237 50.5251 54.6237 50.5566 54.6237 50.5891C54.592 50.5891 54.5603 50.5891 54.5277 50.5891C54.5263 50.6227 54.525 50.6562 54.5237 50.6907C54.4882 50.8446 54.4262 50.877 54.3037 50.9717C54.2819 51.0246 54.2605 51.0777 54.2397 51.131C54.1973 51.1429 54.1546 51.1536 54.1117 51.1629C54.0673 51.2316 54.0462 51.2955 54.0237 51.3741C53.9837 51.4498 53.9837 51.4498 53.8837 51.4917C53.8381 51.5025 53.8381 51.5025 53.7917 51.5136C53.7917 51.5346 53.7917 51.5557 53.7917 51.5773C53.76 51.5773 53.7283 51.5773 53.6957 51.5773C53.6851 51.6404 53.6745 51.7036 53.6637 51.7686C53.6425 51.7686 53.6214 51.7686 53.5997 51.7686C53.5891 51.8001 53.5785 51.8317 53.5677 51.8642C53.536 51.8747 53.5043 51.8853 53.4717 51.8961C53.4482 51.9603 53.4482 51.9603 53.4397 52.0236C53.3869 52.0341 53.3341 52.0446 53.2797 52.0555C53.2797 52.087 53.2797 52.1186 53.2797 52.1511C53.248 52.1511 53.2163 52.1511 53.1837 52.1511C53.1837 52.1722 53.1837 52.1932 53.1837 52.2149C53.1414 52.2254 53.0992 52.2359 53.0557 52.2467C53.0557 52.2783 53.0557 52.3099 53.0557 52.3424C53.0042 52.37 53.0042 52.37 52.9517 52.3982C52.8534 52.4536 52.7823 52.5163 52.7037 52.5974C52.672 52.6079 52.6403 52.6184 52.6077 52.6293C52.5971 52.6503 52.5865 52.6714 52.5757 52.693C52.5545 52.693 52.5334 52.693 52.5117 52.693C52.5011 52.7141 52.4905 52.7351 52.4797 52.7568C52.3977 52.7767 52.3977 52.7767 52.3197 52.7887C52.3091 52.8202 52.2985 52.8518 52.2877 52.8843C52.2137 52.9177 52.1389 52.9494 52.0637 52.9799C52.0204 53.011 51.9776 53.0427 51.9357 53.0756C51.904 53.0861 51.8723 53.0966 51.8397 53.1074C51.8159 53.1321 51.8159 53.1321 51.7917 53.1572C51.7437 53.2031 51.7437 53.2031 51.6477 53.2031C51.6477 53.2241 51.6477 53.2451 51.6477 53.2668C51.5318 53.3088 51.4526 53.3306 51.3277 53.3306C51.3171 53.3621 51.3065 53.3937 51.2957 53.4262C51.264 53.4262 51.2323 53.4262 51.1997 53.4262C51.1997 53.4472 51.1997 53.4683 51.1997 53.49C51.1647 53.4985 51.1297 53.5071 51.0937 53.5159C50.9783 53.5418 50.9783 53.5418 50.9297 53.6055C50.8425 53.6819 50.7355 53.6548 50.6237 53.6493C50.6131 53.6704 50.6025 53.6914 50.5917 53.7131C50.5115 53.7263 50.5115 53.7263 50.4137 53.733C50.3651 53.7366 50.3651 53.7366 50.3155 53.7402C50.2905 53.7418 50.2655 53.7434 50.2397 53.745C50.2397 53.766 50.2397 53.7871 50.2397 53.8087C50.2169 53.813 50.1942 53.8172 50.1708 53.8216C50.1414 53.8272 50.112 53.8328 50.0817 53.8386C50.0377 53.8469 50.0377 53.8469 49.9928 53.8554C49.9212 53.8654 49.9212 53.8654 49.8877 53.9044C49.5704 53.964 49.2475 53.9774 48.9257 53.99C48.8884 53.9916 48.8511 53.9931 48.8127 53.9947C48.6324 54.0008 48.4662 53.9971 48.2877 53.9681C48.2243 53.968 48.161 53.9679 48.0976 53.9687C47.9847 53.9677 47.8736 53.954 47.7617 53.9402C47.738 53.9374 47.7143 53.9345 47.6898 53.9316C47.2791 53.8802 47.2791 53.8802 47.1357 53.8087C47.1357 53.7877 47.1357 53.7667 47.1357 53.745C47.104 53.745 47.0723 53.745 47.0397 53.745C47.0291 53.766 47.0185 53.7871 47.0077 53.8087C47.0077 53.7877 47.0077 53.7667 47.0077 53.745C46.9759 53.7407 46.9442 53.7365 46.9115 53.7322C46.7832 53.7139 46.6566 53.6892 46.5297 53.6633C46.5078 53.6589 46.4859 53.6545 46.4633 53.6499C46.4101 53.6392 46.3569 53.6283 46.3037 53.6175C46.3037 53.5859 46.3037 53.5544 46.3037 53.5218C46.269 53.5317 46.269 53.5317 46.2337 53.5418C46.1294 53.5556 46.077 53.5351 45.9837 53.49C45.9837 53.4689 45.9837 53.4479 45.9837 53.4262C45.9609 53.4246 45.9382 53.4231 45.9148 53.4215C45.8854 53.4191 45.856 53.4167 45.8257 53.4143C45.7963 53.412 45.767 53.4098 45.7368 53.4075C45.7127 53.4032 45.6885 53.3988 45.6637 53.3943C45.6531 53.3733 45.6425 53.3523 45.6317 53.3306C45.5574 53.3176 45.4826 53.3068 45.4077 53.2987C45.4077 53.2777 45.4077 53.2566 45.4077 53.2349C45.372 53.2303 45.3364 53.2257 45.2997 53.221C45.1837 53.2031 45.1837 53.2031 45.1197 53.1712C45.1197 53.1396 45.1197 53.1081 45.1197 53.0756C45.083 53.073 45.0464 53.0704 45.0087 53.0677C44.852 53.0482 44.7295 52.9878 44.5917 52.9142C44.5684 52.9022 44.5451 52.8901 44.5212 52.8778C44.4645 52.8484 44.408 52.8186 44.3517 52.7887C44.3517 52.7571 44.3517 52.7255 44.3517 52.693C44.3299 52.6904 44.3081 52.6878 44.2857 52.6851C44.1637 52.654 44.0752 52.5987 43.9677 52.5336C43.9677 52.5126 43.9677 52.4916 43.9677 52.4699C43.9254 52.4594 43.8832 52.4489 43.8397 52.438C43.8397 52.417 43.8397 52.3959 43.8397 52.3743C43.8192 52.371 43.7987 52.3677 43.7777 52.3643C43.745 52.3534 43.745 52.3534 43.7117 52.3424C43.6958 52.295 43.6958 52.295 43.6797 52.2467C43.6559 52.2454 43.6321 52.2441 43.6077 52.2428C43.5034 52.2097 43.4849 52.1706 43.4312 52.0794C43.3672 51.989 43.282 51.9246 43.1965 51.855C43.1337 51.7987 43.0859 51.7433 43.0397 51.673C43.0397 51.6519 43.0397 51.6309 43.0397 51.6092C43.0159 51.6085 42.9921 51.6079 42.9677 51.6072C42.8657 51.5726 42.8597 51.5565 42.8117 51.4658C42.7638 51.346 42.7638 51.346 42.6557 51.3223C42.6022 51.2281 42.562 51.138 42.5277 51.0354C42.5065 51.0354 42.4854 51.0354 42.4637 51.0354C42.4491 51.0058 42.4346 50.9762 42.4197 50.9458C42.3695 50.8429 42.3695 50.8429 42.3037 50.7485C42.3037 50.717 42.3037 50.6854 42.3037 50.6529C42.2825 50.6529 42.2614 50.6529 42.2397 50.6529C42.2397 50.6319 42.2397 50.6108 42.2397 50.5891C42.2185 50.5891 42.1974 50.5891 42.1757 50.5891C42.1629 50.5563 42.1629 50.5563 42.1499 50.5228C42.1386 50.494 42.1273 50.4653 42.1157 50.4357C42.099 50.393 42.099 50.393 42.0819 50.3494C42.048 50.2647 42.048 50.2647 41.9837 50.1747C41.9712 50.1113 41.9602 50.0475 41.9517 49.9835C41.92 49.9729 41.8883 49.9624 41.8557 49.9516C41.8583 49.9279 41.8609 49.9043 41.8637 49.8799C41.8653 49.7878 41.8653 49.7878 41.7917 49.7344C41.7178 49.6539 41.7189 49.634 41.7197 49.5292C41.7223 49.4898 41.7249 49.4503 41.7277 49.4097C41.6854 49.3992 41.6432 49.3886 41.5997 49.3778C41.5741 49.273 41.5646 49.2277 41.5997 49.1228C41.5785 49.1228 41.5574 49.1228 41.5357 49.1228C41.4259 48.8541 41.4259 48.8541 41.4397 48.7084C41.4185 48.7084 41.3974 48.7084 41.3757 48.7084C41.3757 48.6558 41.3757 48.6032 41.3757 48.549C41.3545 48.549 41.3334 48.549 41.3117 48.549C41.3057 48.4908 41.3057 48.4908 41.2997 48.4314C41.2864 48.323 41.2579 48.2356 41.2157 48.1346C41.2157 48.0925 41.2157 48.0504 41.2157 48.0071C41.184 47.9966 41.1523 47.986 41.1197 47.9752C41.0336 47.7086 41.0358 47.4242 41.0237 47.1464C41.0025 47.1464 40.9814 47.1464 40.9597 47.1464C40.9531 47.1107 40.9465 47.075 40.9398 47.0382C40.9311 46.9912 40.9224 46.9443 40.9137 46.8974C40.9094 46.8738 40.905 46.8503 40.9006 46.8261C40.8824 46.7284 40.8632 46.6351 40.8317 46.5407C40.8368 46.4546 40.851 46.3712 40.8637 46.2857C40.8425 46.2857 40.8214 46.2857 40.7997 46.2857C40.7997 46.1805 40.7997 46.0753 40.7997 45.9669C40.7785 45.9669 40.7574 45.9669 40.7357 45.9669C40.7051 45.5234 40.7001 45.0804 40.6997 44.6361C40.6996 44.608 40.6995 44.5799 40.6994 44.551C40.6992 44.4692 40.6993 44.3875 40.6994 44.3058C40.6993 44.2815 40.6993 44.2573 40.6992 44.2322C40.6999 44.0646 40.7148 43.9019 40.7357 43.7355C40.7568 43.7355 40.7779 43.7355 40.7997 43.7355C40.7997 43.704 40.7997 43.6724 40.7997 43.6399C40.7785 43.6294 40.7574 43.6189 40.7357 43.608C40.7357 43.5765 40.7357 43.5449 40.7357 43.5124C40.7568 43.5124 40.7779 43.5124 40.7997 43.5124C40.799 43.4713 40.7984 43.4302 40.7978 43.3879C40.7978 43.2312 40.8114 43.0782 40.8297 42.9227C40.8324 42.8969 40.8352 42.8711 40.8381 42.8445C40.8595 42.6558 40.8595 42.6558 40.8957 42.6198C40.8967 42.5487 40.8935 42.4781 40.8905 42.407C40.8962 42.3252 40.9185 42.2757 40.9597 42.2054C40.9808 42.2054 41.0019 42.2054 41.0237 42.2054C41.023 42.1745 41.0223 42.1436 41.0217 42.1118C41.0224 41.7451 41.0224 41.7451 41.1197 41.5998C41.1236 41.5735 41.1276 41.5472 41.1317 41.5201C41.1517 41.4404 41.1517 41.4404 41.2134 41.3989C41.3002 41.328 41.3102 41.2711 41.3357 41.1634C41.3434 41.1318 41.3512 41.1001 41.3592 41.0674C41.3646 41.0432 41.3701 41.019 41.3757 40.9941C41.3968 40.9941 41.4179 40.9941 41.4397 40.9941C41.4482 40.9645 41.4568 40.9349 41.4657 40.9044C41.5008 40.8106 41.5207 40.7662 41.5997 40.7072C41.6208 40.7072 41.6419 40.7072 41.6637 40.7072C41.6637 40.6651 41.6637 40.623 41.6637 40.5797C41.6848 40.5797 41.7059 40.5797 41.7277 40.5797C41.7366 40.5462 41.7366 40.5462 41.7457 40.512C41.8012 40.4013 41.8695 40.3471 41.9658 40.2715C42.0198 40.2311 42.0198 40.2311 42.0477 40.1653C42.0793 40.1653 42.111 40.1653 42.1437 40.1653C42.1542 40.1337 42.1648 40.1022 42.1757 40.0697C42.1961 40.0651 42.2166 40.0605 42.2377 40.0557C42.3095 40.0445 42.3095 40.0445 42.3397 39.976C42.3535 39.9435 42.3535 39.9435 42.3677 39.9103C42.3888 39.8892 42.4099 39.8682 42.4317 39.8465C42.4633 39.8465 42.495 39.8465 42.5277 39.8465C42.5277 39.8255 42.5277 39.8044 42.5277 39.7828C42.5842 39.7506 42.6409 39.7188 42.6977 39.6871C42.7292 39.6694 42.7608 39.6516 42.7933 39.6333C42.8797 39.5915 42.8797 39.5915 42.9757 39.5915C42.9757 39.5705 42.9757 39.5494 42.9757 39.5277C43.0323 39.5063 43.0889 39.4851 43.1457 39.464C43.1772 39.4522 43.2088 39.4403 43.2413 39.4281C43.3277 39.4002 43.3277 39.4002 43.4237 39.4002C43.4237 39.3792 43.4237 39.3582 43.4237 39.3365C43.4553 39.3365 43.487 39.3365 43.5197 39.3365C43.5197 39.3154 43.5197 39.2944 43.5197 39.2727C43.5447 39.2662 43.5697 39.2597 43.5955 39.2529C43.6279 39.2443 43.6603 39.2357 43.6937 39.2269C43.726 39.2184 43.7583 39.2099 43.7915 39.2011C43.869 39.1848 43.869 39.1848 43.9037 39.1452C43.9534 39.1341 44.0035 39.1244 44.0537 39.1153C44.1471 39.0977 44.2316 39.0787 44.3217 39.0476C44.4297 39.0133 44.5317 39.0029 44.6443 38.9937C44.7041 38.9919 44.7041 38.9919 44.7357 38.954C44.7996 38.9527 44.8637 38.9526 44.9277 38.954C44.9277 38.9329 44.9277 38.9119 44.9277 38.8902C45.002 38.8532 45.0395 38.857 45.1217 38.8603C45.2226 38.8616 45.3083 38.8545 45.4057 38.8284C45.6617 38.7642 45.9446 38.7627 46.2077 38.7627C46.2077 38.7417 46.2077 38.7206 46.2077 38.6989C46.5589 38.6702 46.9094 38.6635 47.2617 38.6631Z" fill="#FD6600"/>
</g>
<defs>
<clipPath id="clip0_2001_2568">
<rect width="56" height="54" fill="white"/>
</clipPath>
</defs>
</svg>
