<svg width="45" height="50" viewBox="0 0 45 50" fill="none" xmlns="http://www.w3.org/2000/svg">
<path fill-rule="evenodd" clip-rule="evenodd" d="M22.5 0C10.0733 0 0 10.0733 0 22.5C0 34.9268 10.0733 45 22.5 45C34.9268 45 45 34.9268 45 22.5C45 10.0733 34.9268 0 22.5 0ZM22.5 2.25C22.5 7.62063 20.3665 12.7713 16.5689 16.5689C12.7713 20.3665 7.62063 22.5 2.25 22.5C7.62063 22.5 12.7713 24.6335 16.5689 28.4311C20.3665 32.2287 22.5 37.3794 22.5 42.75C22.5 37.3794 24.6335 32.2287 28.4311 28.4311C32.2287 24.6335 37.3794 22.5 42.75 22.5C37.3794 22.5 32.2287 20.3665 28.4311 16.5689C24.6335 12.7713 22.5 7.62063 22.5 2.25Z" fill="#FD6700"/>
</svg>
