<svg width="21" height="21" viewBox="0 0 21 21" fill="none" xmlns="http://www.w3.org/2000/svg">
<path fill-rule="evenodd" clip-rule="evenodd" d="M12.1785 16.2981C11.9565 16.4621 11.7155 16.5981 11.4505 16.6681C10.7045 16.8681 9.88952 16.5701 9.17752 16.3701C4.40452 15.0271 1.20752 12.9241 0.290519 9.78613C-0.441481 7.28013 0.262519 4.77013 1.81052 3.21013C3.24452 1.76513 5.37052 1.17913 7.55152 2.11813C8.97152 0.21413 11.1065 -0.34187 13.0705 0.19313C15.1905 0.77013 17.0545 2.59213 17.6735 5.12813C17.7949 5.62546 17.8559 6.1318 17.8565 6.64713C18.1125 6.77846 18.3525 6.93846 18.5765 7.12713C19.7335 8.10613 20.3515 9.76913 20.0065 11.4981C19.5665 13.7041 17.5215 15.2531 14.5965 16.3591C14.0955 16.5491 13.5475 16.7841 13.0005 16.6881C12.6965 16.6341 12.4245 16.4781 12.1785 16.2981ZM2.21052 9.22513C1.67552 7.39213 2.21352 5.64413 3.23052 4.61913C4.20652 3.63513 5.65352 3.26913 7.25352 4.20513C7.81252 4.53213 8.53352 4.33813 8.85352 3.77713C9.77152 2.16613 11.2075 1.75913 12.5445 2.12313C13.9385 2.50313 15.2785 3.74713 15.7305 5.60213C15.7859 5.8248 15.8225 6.05313 15.8405 6.28713C15.4741 6.33399 15.1168 6.43545 14.7805 6.58813C13.7065 5.54113 12.2845 5.33513 11.0305 5.79713C9.60852 6.32013 8.45852 7.67213 8.19052 9.41513C7.91752 11.2001 8.76052 12.9401 10.3295 14.6131C10.1315 14.5631 9.92652 14.5031 9.71952 14.4451C5.08852 13.1421 2.81952 11.3101 2.21052 9.22513ZM10.1685 9.71813C10.3285 8.66813 11.0075 7.93713 11.7215 7.67313C12.3815 7.43113 13.1145 7.55813 13.6715 8.36313C13.7546 8.48308 13.8606 8.58537 13.9834 8.66411C14.1062 8.74284 14.2434 8.79645 14.3871 8.82183C14.5308 8.84722 14.678 8.84388 14.8204 8.812C14.9628 8.78013 15.0974 8.72035 15.2165 8.63613C16.0165 8.06913 16.7485 8.20113 17.2845 8.65413C17.8665 9.14613 18.2525 10.0661 18.0445 11.1071C17.8195 12.2371 16.6765 13.4351 13.8895 14.4881C13.7125 14.5551 13.5365 14.6271 13.3545 14.6801C13.2015 14.5671 13.0605 14.4401 12.9165 14.3171C10.6585 12.3741 9.99352 10.8571 10.1685 9.71713V9.71813Z" fill="#CB3600"/>
</svg>
