<svg width="30" height="30" viewBox="0 0 30 30" fill="none" xmlns="http://www.w3.org/2000/svg">
<path d="M16.8877 3.92368C16.0727 2.44243 13.9277 2.44243 13.1115 3.92368C12.0381 5.87416 11.1533 7.92261 10.469 10.0412C10.4367 10.1241 10.38 10.1952 10.3063 10.245C10.2326 10.2948 10.1454 10.3209 10.0565 10.3199C8.2227 10.3676 6.39488 10.5498 4.58774 10.8649C2.91649 11.1562 2.18024 13.1612 3.45024 14.4024C3.61024 14.5591 3.77191 14.7149 3.93524 14.8699C5.15876 16.0285 6.45426 17.1085 7.81399 18.1037C7.87577 18.1447 7.92257 18.2046 7.94736 18.2745C7.97215 18.3444 7.9736 18.4204 7.95149 18.4912C7.26504 20.5508 6.77453 22.6706 6.48649 24.8224C6.24899 26.6024 8.13399 27.6949 9.60524 26.9399C11.3913 26.0245 13.0992 24.9639 14.7115 23.7687C14.7959 23.709 14.8968 23.6769 15.0002 23.6769C15.1037 23.6769 15.2046 23.709 15.289 23.7687C16.9003 24.9653 18.6083 26.026 20.3952 26.9399C21.8665 27.6949 23.7515 26.6024 23.514 24.8224C23.2264 22.6707 22.7363 20.5508 22.0502 18.4912C22.0281 18.4204 22.0296 18.3444 22.0544 18.2745C22.0792 18.2046 22.126 18.1447 22.1877 18.1037C23.7283 16.976 25.1862 15.7395 26.5502 14.4037C27.8202 13.1612 27.084 11.1562 25.4127 10.8649C23.6052 10.5497 21.777 10.3675 19.9427 10.3199C19.854 10.3207 19.7672 10.2944 19.6937 10.2446C19.6203 10.1948 19.5637 10.1239 19.5315 10.0412C18.8494 7.9218 17.9632 5.87315 16.8877 3.92368Z" fill="#F8C600"/>
</svg>
