<svg width="24" height="24" viewBox="0 0 24 24" fill="none" xmlns="http://www.w3.org/2000/svg">
<path d="M22.314 20.9L20.899 22.313L18.071 19.485L19.485 18.071L22.314 20.9ZM11 1.99999C11.2614 2.00061 11.5226 2.01262 11.783 2.03599C11.437 2.64547 11.2004 3.31086 11.084 4.00199L11 3.99999C7.133 3.99999 4 7.13299 4 11C4 14.867 7.133 18 11 18C14.867 18 18 14.867 18 11L17.997 10.915C18.6882 10.7983 19.3536 10.5614 19.963 10.215C19.985 10.475 20 10.735 20 11C20 15.968 15.968 20 11 20C6.032 20 2 15.968 2 11C2 6.03199 6.032 1.99999 11 1.99999ZM16.53 1.31999C16.5675 1.22597 16.6323 1.14536 16.7161 1.08858C16.7999 1.03179 16.8988 1.00143 17 1.00143C17.1012 1.00143 17.2001 1.03179 17.2839 1.08858C17.3677 1.14536 17.4325 1.22597 17.47 1.31999L17.724 1.92999C18.1485 2.96506 18.9538 3.79792 19.974 4.25699L20.692 4.57699C20.7838 4.61947 20.8615 4.68733 20.916 4.77256C20.9705 4.85779 20.9994 4.95683 20.9994 5.05799C20.9994 5.15914 20.9705 5.25818 20.916 5.34341C20.8615 5.42865 20.7838 5.49651 20.692 5.53899L19.932 5.87699C18.9374 6.32332 18.146 7.12607 17.714 8.12699L17.467 8.69299C17.4286 8.78515 17.3637 8.86388 17.2806 8.91926C17.1975 8.97464 17.0999 9.00419 17 9.00419C16.9001 9.00419 16.8025 8.97464 16.7194 8.91926C16.6363 8.86388 16.5714 8.78515 16.533 8.69299L16.287 8.12799C15.8547 7.12634 15.0626 6.32315 14.067 5.87699L13.307 5.53899C13.2149 5.49663 13.1369 5.42876 13.0822 5.34342C13.0276 5.25808 12.9985 5.15884 12.9985 5.05749C12.9985 4.95613 13.0276 4.8569 13.0822 4.77156C13.1369 4.68622 13.2149 4.61835 13.307 4.57599L14.025 4.25599C15.0452 3.79761 15.8508 2.96549 16.276 1.93099L16.53 1.31999Z" fill="white"/>
</svg>
