<svg width="24" height="24" viewBox="0 0 24 24" fill="none" xmlns="http://www.w3.org/2000/svg">
<path d="M2.007 2.94151C2.2425 2.04301 3.0615 1.50001 3.9225 1.50001C4.4535 1.50001 4.9365 1.69951 5.304 2.02501C5.70918 1.68513 6.22114 1.49884 6.75 1.49884C7.27886 1.49884 7.79082 1.68513 8.196 2.02501C8.57621 1.68598 9.06809 1.49906 9.5775 1.50001C10.4385 1.50001 11.2575 2.04301 11.493 2.94151C11.718 3.79951 12 5.18251 12 6.75001C12 7.62535 11.7811 8.48678 11.3632 9.25594C10.9454 10.0251 10.3418 10.6776 9.6075 11.154C9.201 11.4195 9 11.7615 9 12.054V12.648C9 12.682 9.002 12.715 9.006 12.747C9.057 13.119 9.2415 14.5005 9.414 15.933C9.5835 17.3385 9.75 18.8715 9.75 19.5C9.75 20.2957 9.43393 21.0587 8.87132 21.6213C8.30871 22.1839 7.54565 22.5 6.75 22.5C5.95435 22.5 5.19129 22.1839 4.62868 21.6213C4.06607 21.0587 3.75 20.2957 3.75 19.5C3.75 18.87 3.9165 17.34 4.086 15.933C4.2585 14.5005 4.443 13.119 4.494 12.747L4.5 12.648V12.054C4.5 11.7615 4.299 11.4195 3.8925 11.154C3.15818 10.6776 2.55464 10.0251 2.13679 9.25594C1.71894 8.48678 1.50004 7.62535 1.5 6.75001C1.5 5.18251 1.782 3.79951 2.007 2.94151ZM9 7.50001C9 7.69892 8.92098 7.88969 8.78033 8.03034C8.63968 8.17099 8.44891 8.25001 8.25 8.25001C8.05109 8.25001 7.86032 8.17099 7.71967 8.03034C7.57902 7.88969 7.5 7.69892 7.5 7.50001V3.75001C7.5 3.5511 7.42098 3.36033 7.28033 3.21968C7.13968 3.07903 6.94891 3.00001 6.75 3.00001C6.55109 3.00001 6.36032 3.07903 6.21967 3.21968C6.07902 3.36033 6 3.5511 6 3.75001V7.50001C6 7.69892 5.92098 7.88969 5.78033 8.03034C5.63968 8.17099 5.44891 8.25001 5.25 8.25001C5.05109 8.25001 4.86032 8.17099 4.71967 8.03034C4.57902 7.88969 4.5 7.69892 4.5 7.50001V3.57751C4.5 3.42435 4.43916 3.27746 4.33085 3.16916C4.22255 3.06086 4.07566 3.00001 3.9225 3.00001C3.6735 3.00001 3.5025 3.14851 3.4575 3.32251C3.1619 4.44131 3.00819 5.59285 3 6.75001C2.99993 7.37557 3.15635 7.9912 3.45501 8.54085C3.75368 9.09051 4.18511 9.55671 4.71 9.89701C5.3685 10.3245 6 11.076 6 12.054V12.648C6 12.748 5.9935 12.848 5.9805 12.948C5.9295 13.317 5.7465 14.6895 5.5755 16.113C5.4015 17.5605 5.25 18.984 5.25 19.5C5.25 19.8978 5.40804 20.2794 5.68934 20.5607C5.97064 20.842 6.35218 21 6.75 21C7.14782 21 7.52936 20.842 7.81066 20.5607C8.09196 20.2794 8.25 19.8978 8.25 19.5C8.25 18.984 8.1 17.5605 7.9245 16.1115C7.7535 14.6895 7.5705 13.317 7.5195 12.9465C7.50809 12.8479 7.50158 12.7488 7.5 12.6495V12.0555C7.5 11.0775 8.1315 10.326 8.79 9.89851C9.31511 9.55807 9.74667 9.09163 10.0453 8.54169C10.344 7.99176 10.5003 7.37582 10.5 6.75001C10.5 5.35201 10.248 4.10401 10.0425 3.32251C9.9975 3.15001 9.825 3.00001 9.5775 3.00001C9.42434 3.00001 9.27745 3.06086 9.16915 3.16916C9.06084 3.27746 9 3.42435 9 3.57751V7.50001ZM13.5 8.25001C13.5 6.4598 14.2112 4.74291 15.477 3.47704C16.7429 2.21117 18.4598 1.50001 20.25 1.50001C20.4489 1.50001 20.6397 1.57903 20.7803 1.71968C20.921 1.86033 21 2.0511 21 2.25001V11.2095L21.0285 11.475C21.1478 12.5945 21.2623 13.7145 21.372 14.835C21.5565 16.719 21.75 18.831 21.75 19.5C21.75 20.2957 21.4339 21.0587 20.8713 21.6213C20.3087 22.1839 19.5456 22.5 18.75 22.5C17.9544 22.5 17.1913 22.1839 16.6287 21.6213C16.0661 21.0587 15.75 20.2957 15.75 19.5C15.75 18.831 15.9435 16.719 16.128 14.835C16.2225 13.8795 16.317 12.9645 16.3875 12.2865L16.4175 12H15C14.6022 12 14.2206 11.842 13.9393 11.5607C13.658 11.2794 13.5 10.8978 13.5 10.5V8.25001ZM17.9955 11.3295L17.964 11.6325C17.8468 12.7487 17.7328 13.8652 17.622 14.982C17.4315 16.9125 17.25 18.927 17.25 19.5C17.25 19.8978 17.408 20.2794 17.6893 20.5607C17.9706 20.842 18.3522 21 18.75 21C19.1478 21 19.5294 20.842 19.8107 20.5607C20.092 20.2794 20.25 19.8978 20.25 19.5C20.25 18.9255 20.0685 16.9125 19.878 14.982C19.768 13.8651 19.654 12.7486 19.536 11.6325L19.5045 11.331L19.5 11.25V3.05251C18.2503 3.23289 17.1074 3.85764 16.2809 4.81224C15.4544 5.76684 14.9997 6.98734 15 8.25001V10.5H17.25C17.3552 10.5001 17.4592 10.5222 17.5552 10.565C17.6513 10.6079 17.7372 10.6705 17.8075 10.7487C17.8779 10.8269 17.9309 10.919 17.9633 11.0191C17.9957 11.1192 18.0066 11.2249 17.9955 11.3295Z" fill="#CB3600"/>
</svg>
