<svg width="16" height="16" viewBox="0 0 16 16" fill="none" xmlns="http://www.w3.org/2000/svg">
<path d="M13.0001 9C13.0014 9.20386 12.9394 9.40311 12.8228 9.57033C12.7062 9.73754 12.5406 9.86451 12.3488 9.93375L9.1251 11.125L7.9376 14.3512C7.86728 14.5423 7.74005 14.7072 7.57307 14.8236C7.4061 14.9401 7.20743 15.0025 7.00385 15.0025C6.80027 15.0025 6.6016 14.9401 6.43462 14.8236C6.26765 14.7072 6.14042 14.5423 6.0701 14.3512L4.8751 11.125L1.64885 9.9375C1.45781 9.86718 1.29293 9.73995 1.17647 9.57298C1.06 9.406 0.997559 9.20733 0.997559 9.00375C0.997559 8.80017 1.06 8.6015 1.17647 8.43452C1.29293 8.26755 1.45781 8.14032 1.64885 8.07L4.8751 6.875L6.0626 3.64875C6.13292 3.45771 6.26015 3.29283 6.42712 3.17637C6.5941 3.0599 6.79277 2.99746 6.99635 2.99746C7.19993 2.99746 7.3986 3.0599 7.56557 3.17637C7.73255 3.29283 7.85978 3.45771 7.9301 3.64875L9.1251 6.875L12.3513 8.0625C12.5432 8.13237 12.7087 8.26008 12.8249 8.42801C12.9411 8.59594 13.0023 8.7958 13.0001 9ZM9.5001 3H10.5001V4C10.5001 4.13261 10.5528 4.25979 10.6465 4.35355C10.7403 4.44732 10.8675 4.5 11.0001 4.5C11.1327 4.5 11.2599 4.44732 11.3537 4.35355C11.4474 4.25979 11.5001 4.13261 11.5001 4V3H12.5001C12.6327 3 12.7599 2.94732 12.8537 2.85355C12.9474 2.75979 13.0001 2.63261 13.0001 2.5C13.0001 2.36739 12.9474 2.24021 12.8537 2.14645C12.7599 2.05268 12.6327 2 12.5001 2H11.5001V1C11.5001 0.867392 11.4474 0.740215 11.3537 0.646447C11.2599 0.552678 11.1327 0.5 11.0001 0.5C10.8675 0.5 10.7403 0.552678 10.6465 0.646447C10.5528 0.740215 10.5001 0.867392 10.5001 1V2H9.5001C9.36749 2 9.24031 2.05268 9.14655 2.14645C9.05278 2.24021 9.0001 2.36739 9.0001 2.5C9.0001 2.63261 9.05278 2.75979 9.14655 2.85355C9.24031 2.94732 9.36749 3 9.5001 3ZM15.0001 5H14.5001V4.5C14.5001 4.36739 14.4474 4.24021 14.3537 4.14645C14.2599 4.05268 14.1327 4 14.0001 4C13.8675 4 13.7403 4.05268 13.6465 4.14645C13.5528 4.24021 13.5001 4.36739 13.5001 4.5V5H13.0001C12.8675 5 12.7403 5.05268 12.6465 5.14645C12.5528 5.24021 12.5001 5.36739 12.5001 5.5C12.5001 5.63261 12.5528 5.75979 12.6465 5.85355C12.7403 5.94732 12.8675 6 13.0001 6H13.5001V6.5C13.5001 6.63261 13.5528 6.75979 13.6465 6.85355C13.7403 6.94732 13.8675 7 14.0001 7C14.1327 7 14.2599 6.94732 14.3537 6.85355C14.4474 6.75979 14.5001 6.63261 14.5001 6.5V6H15.0001C15.1327 6 15.2599 5.94732 15.3537 5.85355C15.4474 5.75979 15.5001 5.63261 15.5001 5.5C15.5001 5.36739 15.4474 5.24021 15.3537 5.14645C15.2599 5.05268 15.1327 5 15.0001 5Z" fill="#F8C600"/>
</svg>
