<svg width="54" height="54" viewBox="0 0 54 54" fill="none" xmlns="http://www.w3.org/2000/svg">
<path fill-rule="evenodd" clip-rule="evenodd" d="M27 0C12.0879 0 0 12.0879 0 27C0 41.9121 12.0879 54 27 54C41.9121 54 54 41.9121 54 27C54 12.0879 41.9121 0 27 0ZM27 2.7C27 9.14476 24.4398 15.3256 19.8827 19.8827C15.3256 24.4398 9.14476 27 2.7 27C9.14476 27 15.3256 29.5602 19.8827 34.1173C24.4398 38.6744 27 44.8552 27 51.3C27 44.8552 29.5602 38.6744 34.1173 34.1173C38.6744 29.5602 44.8552 27 51.3 27C44.8552 27 38.6744 24.4398 34.1173 19.8827C29.5602 15.3256 27 9.14476 27 2.7Z" fill="#FD6700"/>
</svg>
